<?xml version="1.0" encoding="UTF-8"?>
<svg id="Layer_2" data-name="Layer 2" xmlns="http://www.w3.org/2000/svg" viewBox="0 0 76.12 75.62">
  <defs>
    <style>
      .cls-1 {
        fill: #fff;
        stroke-width: 0px;
      }
    </style>
  </defs>
  <g id="Livello_2" data-name="Livello 2">
    <g>
      <path class="cls-1" d="m62.35,54.23s-.02,0-.04-.02c0,0-2.76-.5-3-4.96.96,1.02,1.67,1.75,1.67,1.75.03.03.08.05.12.05s.08-.02.12-.05c.07-.07.07-.17,0-.23,0,0-1.99-2.06-3.8-4.08-.02-.02-.03-.02-.06-.02.52-1.3.91-2.65.91-3.89,0-.12,0-.24,0-.35.57-.35,1.27-.41,1.7-.41.22,0,.37.02.37.02.09,0,.17-.05.19-.14,0-.09-.05-.17-.14-.19,0,0-.16-.02-.41-.02-.47,0-1.3.07-1.99.54-.22.14-.41.33-.58.56-.56.78-3,2.81-4.6,4.09-.54.43-.98.78-1.24.97-.04.03-.09.09-.15.16-.02.02-.07.07-.12.12.26-2.2,1.45-9.35,6.36-15.17.18.03.37.05.55.05.07,0,.16,0,.24,0l-1.22,4.77c-.02.09.03.18.12.2.09.03.18-.03.2-.12l1.26-4.91c.35-.07.69-.21,1.01-.45.44-.31,1.97-1.07,2.43-1.86l1.42-1.14s.29-.26.61-.65c.62,1.6,1.02,3.83,1.37,6.84.12,1.06.17,2.09.17,3.1,0,3.69-.71,6.91-1.2,8.92-.08-1.96-.4-5.31-.4-7.64,0-.74.03-1.36.11-1.81.14-.8.19-1.58.19-2.25,0-1.35-.19-2.32-.19-2.33-.02-.09-.11-.15-.19-.13-.09.02-.15.11-.13.2,0,0,.18.94.18,2.26,0,.66-.04,1.41-.18,2.19-.08.47-.12,1.12-.12,1.86,0,2.69.42,6.71.42,8.4,0,.23,0,.41-.02.55v.02c-.11.44-.16.91-.16,1.38.02,1.46.41,2.95,1.05,3.58-.62.06-1.75.17-2.78.22l-.02.03Zm-1.32.05h-.33c-.63-.02-.7,0-1.39-.04-.34-.02-.68-.03-1.01-.04,0,0-.02,0-.03,0-1.07-.24-2.53-1.84-2.53-1.84-.06-.07-.17-.07-.23-.02-.08.06-.08.17-.02.23,0,0,.89,1.01,1.87,1.58-.51-.02-.98-.05-1.4-.07-.47-.02-.86-.06-1.15-.09-.14-.02-.26-.03-.34-.04-.04,0-.07,0-.09-.02,0,0-.05-.02-.07-.02-.06-.27-.12-.63-.12-.96,0-.26.04-.5.12-.65.21-.42,1.82-2.7,2.93-5.29.6.67,1.2,1.34,1.76,1.93-.02.02-.03.05-.03.08.08,3.43,1.65,4.78,2.58,5.27h-.52,0Zm-6.18,1.5h0c.02.16-.4.6-.55.69-.12.09-.49.23-.71.36-.05.03-.15.05-.27.05s-.25-.02-.37-.02c-.21,0-.71-.19-.71-.19h-.09s-.37.07-.68.07c-.06,0-.12,0-.17,0-.18,0-.24-.28-.28-.8v-.1c0-.12.02-.24.06-.36.07-.28.22-.54.3-.71.13-.29.38-1.2.39-1.62l-.15-.02h.15c0-.3.27-1.03.66-1.94.41-.98.72-4.09.72-4.1v-.07c1.61-1.3,3.94-3.21,4.55-4.06.08-.12.17-.21.27-.31v.11c0,3.66-3.57,8.64-3.93,9.35-.13.23-.15.51-.15.8,0,.44.08.89.15,1.19.05.21.09.33.09.34.03.05.78,1.16.76,1.33l-.02.02Zm-3.68-6.89s.5-.73.57-.78c.22-.17.57-.45,1-.78-.06.5-.2,1.67-.38,2.61-.02,0-.02-.02-.04-.03-.98-.3-1.18-.65-1.18-.91,0-.03,0-.07,0-.09h0s.02-.02.02-.02Zm-1.31,2.8l-.36-1.29c-.29-.74-.39-1.4-.39-1.96,0-1.16.42-1.96.55-2.29.17-.45,1.25-2.52,1.25-2.53l.65-1.39.11-.43c.02-.09.05-.21.07-.34.18-.74.41-2.02.44-2.53v-.1c0-.56-.22-1.57-.41-2.02-.09-.22-.12-.41-.12-.6,0-.16.02-.31.04-.47.04-.31.45-1.84.54-2.29l2.05-.1s.69-.07,1.17-.37c.08-.05.11-.15.06-.23-.04-.07-.15-.11-.22-.06-.38.24-1.02.32-1.02.32l-3.04.15c-.09,0-.16.08-.16.17s.07.16.17.16h0l.66-.03c-.11.5-.48,1.89-.53,2.23-.02.16-.04.33-.04.52,0,.22.03.46.14.73.16.39.38,1.42.38,1.9v.09c-.02.45-.26,1.75-.43,2.47-.02.09-.04.17-.06.25-.22,0-.84.02-1.72.09-.91.08-2.1.23-3.47.52.37-.83.62-1.63.63-2.34v-.21l1.03-2.2v-.02s.02-.07.02-.11c.25-.12.51-.26.69-.46.42-.48,1.56-2.34,1.56-2.35,0-.02,0-.02.02-.04.1-.15.21-.31.31-.5,0,0,0-.03.03-.07.02-.02.03-.02.04-.05.03-.08.06-.17.09-.26.14-.33.36-.83.59-1.26.02.02.37-.19.43-.21,1.25-.47,1.65-2.06,1.66-2.07v-.12c.62.73,2.2,2.4,3.97,2.88-1.56,1.89-2.75,3.91-3.64,5.85-.06-.64-.07-1.16-.07-1.5,0-.31,0-.48,0-.48,0-.09-.07-.17-.16-.17s-.17.07-.17.16c0,0-.02.18-.02.5,0,.45.02,1.18.12,2.08,0,0,0,.02.02.02-2.19,5.06-2.47,9.45-2.48,9.47v.02c-.02.06-.02.12-.02.18,0,.45.37.9,1.4,1.2h.04s.02,0,.03,0c-.07.37-.16.69-.24.89-.39.92-.67,1.63-.67,2.06v.02c0,.12-.04.36-.1.6-.02-.02-.04-.02-.07-.02-.62-.12-.74-.15-1.38-2.05h0Zm-1.17-6.15s-1.3,1.96-1.46,2.2c-.17.25-.17.62-.17.92,0,.15,0,.27,0,.34,0,.13-.12.54-.11.54-.03.07-.03.12-.03.18,0,.37.22.77.42,1.02.22.29.52.46.59.66v.05c.02.14-.22.45-.54.61-.17.09-.61.14-1.07.14-.35,0-.72-.02-1.04-.07-.45-.06-.48-.39-.5-.61v-.11s.32-.97.37-1.11c.04-.14.05-.34.06-.56,0-.18,0-.36-.02-.51v-.03c0-.26.29-.97.57-1.34.24-.34.26-.87.27-1.3,0-.24,0-.44-.02-.53v-.28c0-.75.02-2.7.02-3.1,1.35-.3,2.54-.46,3.46-.54-.21,2.6-.81,3.44-.81,3.46v-.02Zm-3.29-2.49c-1.18,2.15-2.88,4.14-3.02,4.5-.06.18-.11.37-.11.63,0,.33.07.78.25,1.54.04.16.06.33.06.48,0,.36-.1.67-.23.92l-.02-.23c0-.09-.09-.16-.18-.15-.02,0-.66.04-1.02.59-.32.51-.61,1.52-.7,1.94-.05.21-.14.42-.21.54-.06-.06-.08-.18-.08-.27l-.13-2.25-.07-.12c-.1-.08-.17-.16-.23-.26,0,0,0-.02-.02-.03,0-.03-.02-.06-.03-.08-.06-.16-.08-.35-.08-.54s.02-.38.02-.56c0-.41.42-1.01.77-1.75.17-.35.44-1.23.7-2.11.32-1.03.6-2.04.6-2.04.16-1.27.37-2.18.6-2.85.49-1.42.98-1.7,1.12-1.82.25-.26.48-1.05.5-1.06l3.13-.37s.19-.05.42-.12l-.96,2.06-.02.08v.22c0,.7-.28,1.57-.72,2.45-.11.22-.22.45-.35.68l.02-.02Zm-2.73,12.57h-.02l-.92-2.48c-.02-.07-.08-.11-.16-.11-.07,0-.13.04-.16.11l-1.21,3.04h-.02l.3-2.15v-.02c.08-.14.21-.4.27-.67.08-.4.37-1.41.66-1.83.16-.25.42-.36.61-.4l.04.43.61,4.09h0Zm-2.06.47l.96-2.42.75,2.03-1.71.39Zm2.53,1.39c.08-.02.14-.1.12-.18l-.22-1.42.81-.19,4.71.97-8.86,2.5-4.5-1.47,4.57-1.06-.27,1.44c-.02.08.03.17.12.2s.17-.02.2-.11l.64-1.69,1.98-.45.51,1.36c.02.08.12.12.2.1h0Zm5.96.36l-9.22,2.69v-1.07l9.22-2.6v.98Zm-9.57,2.63l-4.78-1.6v-.98l4.79,1.56v1.02h0Zm1.47-17.36c-.08-.02-.18.02-.21.11-.02.09-.24.34-.27.77,0,.21-.21.21-.24.22-.08-.02-.12-.11-.12-.31,0-.16.03-.35.05-.45,0-.09-.06-.17-.15-.18-.09,0-.17.06-.19.15,0,.07-.05.27-.05.48,0,.17.03.4.2.54,0,.07-.03.25-.07.45-.02.02-.05.03-.07.06-.13.22-.37.29-.61.29-.07,0-.15,0-.2-.02-.21-.03-.67-.42-.68-.42l-.51-.44s-.08-.07-.1-.09c.08-.02.22-.05.28-.29v-.06s.07,0,.11.02c.02-.02.43.48.45.53.07.08.12.07.16.08.24-.03.51-.26.6-.31.18-.2.15-.43.17-.6v-.02h-.17.17c0-.12.22-1.08.27-1.19.07-.15,0-.06.49-.71.03-.02.13-.12.61-.54.27-.25.49-.31.66-.31.15,0,.26.05.32.08-.22.68-.42,1.57-.57,2.76,0,0-.27.94-.57,1.93,0,0-.02.02-.03.03l-.34.54-.32.43c-.07.1-.09.08-.09.09,0,0-.03-.02-.07-.08-.04-.07-.06-.13-.06-.13l-.06-.03h.04c0-.13.16-.64.22-.74.09-.16.12-.41.18-.7.04-.22.07-.42.07-.54.15-.02.48-.12.52-.53.02-.34.17-.47.25-.69.02-.09-.02-.18-.12-.21l.02.02Zm-1.75,6.57c0,.16-.02.36-.02.57,0,.12,0,.23.02.35-.15-.04-.28-.07-.42-.07-.76.02-1.33.55-2.08.8-.72.24-1.49.33-1.88.36.27-.71,1.04-2.84,1.23-4.58,0,0,.11-1.07.22-2.55,0-.09-.06-.17-.16-.17-.09,0-.17.06-.18.16-.1,1.47-.21,2.53-.21,2.54-.19,1.77-1.03,4.03-1.25,4.61-.4-.12-1.14-.74-1.84-1.37v-.02s-.19-2.66-.18-3.85c0-.24,0-.43.02-.49h0c.44-1.23.46-1.96.61-2.54v-.03c.3-.66.39-1.36.42-1.69v-.02c0-.18-.16-.7-.16-.71,0,0-.02-.12-.07-.31l.3-.26c.08.13.17.28.28.4.27.31.92.59,1.52.6.12,0,.25-.02.37-.05.31-.11.42-.31.42-.27.23-.07.4-.24.49-.24.24-.07.37-.27.43-.4.04,0,.09,0,.15,0,.17,0,.5-.06.52-.39.02-.28.03-.89.03-1.12.14-.11.42-.38.54-.85.27-.02.77-.08.77-.08.51-.16.66-.57.66-.91,0-.21-.05-.4-.09-.54-.13-.34-.56-.64-.78-.77.06-.12.08-.23.08-.33,0-.26-.15-.43-.22-.49-.14-.36-.44-.51-.7-.58l-.07-3.06c.57-.15,1.13-.48,1.44-1.13l.07.04h.16c.12,0,.31-.02.5-.09.34-.14.63-.44.64-.45.17-.12.27-.3.28-.45l1.91.91c.02.12.05.22.05.31,0,.03,0,.06,0,.07-.02.05-.02.1-.02.14,0,.34.27.51.28.52.02.02.04.02.07.03v.08c0,.27.02.57.07.89,0,0,.07.59.43,1.11,0,0,0,.02-.02.03,0,0-.19.5-.28.54-.22.18-.94,1.07-.96,1.9,0,.07,0,.16.02.23.17.73.54,1.98.54,1.98.02.07.1.12.18.12l.13-.02c-.08.25-.27.73-.35.77-.1.09-.66.46-1.15,1.78-.1-.05-.25-.1-.43-.1-.26,0-.57.1-.88.4-.39.36-.54.49-.57.53-.02,0-.03.03-.05.04-.16-.38-.22-.72-.22-1.02-.02-1.61,1.84-2.36,1.84-2.37.09-.03.12-.13.09-.22-.04-.08-.13-.12-.22-.09,0,0-.57.22-1.11.72-.02-.39-.07-1.07-.07-1.59.02-.07.32-.95.69-1.87.37-.95.93-1.96,1.17-2.02.08-.03.13-.13.09-.22-.03-.08-.13-.12-.22-.09-.54.26-1.14,1.6-1.55,2.68.16-.77.38-1.83.6-2.79.02-.09-.04-.18-.13-.2-.09-.02-.18.04-.2.12-.37,1.62-.76,3.47-.79,3.88,0,.09,0,.2,0,.32,0,.76.09,1.96.11,2.09-.34.41-.61.95-.62,1.64,0,.38.08.8.29,1.26,0,.02.03.04.05.06-.26.35-.27.36-.32.51-.07.2-.28,1.08-.29,1.3v.02c0,.06,0,.16-.02.24,0,.04-.02.07-.02.1h0s-.12.08-.22.15c-.04.02-.09.05-.12.07-.12-.16-.33-.49-.59-.58-.07,0-.13-.02-.22-.02-.09,0-.32.04-.32.26,0,.03,0,.07.02.09-.08.03-.25.06-.3.3,0,.16.1.25.24.37l.51.44s.45.4.82.49c.08.02.17.03.27.03.17,0,.39-.04.57-.14-.02.09-.04.16-.05.16-.12.21-.27.65-.28.92,0,.05,0,.11.05.18,0-.05.03.34.42.4.15,0,.27-.09.37-.23l.07-.1c-.15.46-.28.85-.37,1.03-.32.71-.79,1.28-.81,1.88h-.05Zm-8.25-1c.4-.42.76-.89.88-1.25.1-.2.19-.41.27-.61.02,1,.12,2.49.17,3.15-.69-.64-1.26-1.23-1.32-1.29Zm-1.23.73c-.16-.52-.27-.95-.3-1.09-.07-.49-.58-1.55-.76-1.92,1.2-.23,2.1-.9,2.54-1.51.61-.08,1.05-.37,1.37-.74-.08.49-.2,1.06-.52,1.87,0,0-.26.69-.56,1.3-.15.55-1.37,1.69-1.8,2.1h.02Zm.58,2.91c.09.23.37.56.37,1.14,0,.1,0,.21-.03.34,0,.05-.02.1-.03.15-.03.13-.08.26-.16.4-.61,1.19-.64,2.29-3.28,2.31h-.35l-.73-.07h-.02c-.15-.06-.27-.1-.35-.13-.35-.12-3.82-1.49-5.37-2.23-1.53-.72-2.68-2.01-4.03-3.15-.02-.02-.05-.04-.07-.07-.68-.63-.82-1.49-.82-2.11,0-.21.02-.39.03-.51.62.51,1.78,1.17,3.18,1.26.67.04,1.37.11,2.04.11.85,0,1.65-.11,2.27-.53.1.98.27,1.82.74,2.23,0,0,.53.45.59.49.06.05.17.12.31.22.06.05.12.09.17.13.04.03.04.05.05.05.03.06.11.29.12.37-.06.05-.27.14-.37.28-.03.06-.07.15-.07.29,0,.11.04.28.21.36,0,0,.04.03.14.03.09,0,.18-.05.26-.13.06-.07.16-.12.23-.12.12-.06.48-.14.65-.41l.56,1.16.07.07s.15.08.32.09c.05,0,.11-.02.15-.04.06-.06.2-.14.21-.33,0-.04,0-.07-.02-.12-.04-.11-.18-.59-.18-.59l-.17-.57.12.16.4.68s.17.24.43.26c.04,0,.07,0,.1-.02.11-.04.33-.14.33-.4,0-.07-.02-.15-.05-.22-.12-.28-.35-.83-.35-.83,0,0-.12-.23-.28-.47l.12.04.95.6.11.02s.18,0,.32-.16c.04-.06.05-.12.05-.17,0-.15-.07-.25-.15-.33-.06-.07-.8-.97-.8-.97-.03-.03-.34-.26-.54-.35,0,0-.11-.12-.11-.12-.1-.2-.47-.5-.56-.59-.13-.11-.71-.47-1-.56-.24-.02-.64-.17-.61-.26.04-.31.73-1.92.72-1.92l.5-1s.06-.11.15-.29c.13.15.64.62,1.55.63.08.17.72,1.5.77,1.92.05.35.45,1.63.78,2.65.22.66.39,1.21.43,1.3l.02.02Zm.56,1.94c.12.17.36.49.59.88.13.21.18.59.18.96,0,.49-.07.97-.09,1.23-.02.33-.24.36-.88,1.08-.25.29-.69.4-1.17.4s-.99-.11-1.31-.2c-.66-.18-2.17-.5-3.04-.59-.79-.07-2.52-1.1-2.96-1.3-.37-.15-2.39-1.83-2.6-2.03-.31-.27-.86-.37-1.11-.42h-.04c-.43.03-1.73,1.01-1.88,1.09-.13.09-.34.24-.43.48-.02.05-.03.12-.03.17,0,.16.08.26.12.36.12.26.39.26.46.29.1.03.26.09.39.13-.02.03-.05.07-.08.12-.03.05-.07.09-.11.12-.02.03-.03.02-.03.03-.21.14-.16.3-.16.38-.03.02-.13.06-.17.06h-.03c-.07,0-.19-.02-.28-.02h-.04c-.06,0-.34-.04-.34-.04h0s-.07-.07-.11-.12c-.02-.02-.03-.04-.04-.05-.08-.22-.76-1.39-.8-1.64l-.02-.02h0c0-.29.52-1.61.78-2.16.29-.64.29-1.31.32-1.64,0-.19.14-.36.22-.44,1.3,1.12,2.47,2.41,4.06,3.16,1.58.75,5.02,2.11,5.41,2.25.07.02.22.08.4.15.67.26,1.94.83,2.08.98.07.06.17.06.24,0,.07-.07.06-.17,0-.24-.18-.16-.73-.43-1.29-.68h.14c2.78.02,3.06-1.4,3.58-2.5.04-.08.07-.16.1-.24h-.04Zm-15.95-7.83s-.02-.08-.06-.11c.31-.27,1.36-.86,1.55-.88h.02c.25,0,.77,0,1.22.04.33.02.63.12.62.15.2.22.3,1.13.52,1.38.13.12,1.18.96,1.18.96.07.06.17.05.24-.02.06-.07.04-.17-.03-.23,0,0-1.05-.85-1.18-.96-.04.02-.22-.99-.47-1.34-.17-.18-.44-.22-.76-.26,0,0,0,0-.02-.02-.17-.13-.57-.53-.56-.92v-.03c0-.06,0-.12.02-.18.08-.42.41-.95.83-1.41.14-.17.4-.36.67-.54.45-.29.94-.54,1.12-.64.8.83,2.38,2.44,3.17,2.91-.15.61-.25,1.3-.25,2.06v.29c.02.68.04,1.43.09,2.12-.53.45-1.32.59-2.23.59-.64,0-1.33-.06-2.01-.1-1.46-.08-2.7-.88-3.17-1.35-.05-.05-.08-.09-.12-.12-.33-.4-.46-1.41-.46-1.41l.03.02Zm-.4-.22s-.05.06-.09.1c-.25.23-.79.54-.93.62-.92-.02-1.05-.51-1.08-1.16,0-.45.11-.93.14-1.24.02-.53,1.11-1.21,1.47-1.28.03,0,.07,0,.11,0h.06c.2,0,.49.03.77.07.32.04.61.09.72.1,0-.02.32.17.62.36.27.16.52.33.57.36v.12c0,.36.19.67.38.88-.38-.02-.73,0-.81-.02h-.02c-.41.04-1.59.73-1.9,1.09h0Zm-1.68-3.36h0c-.07-.04-.22-.18-.34-.32-.38-.42-.84-.36-1.45-.4-.1-.02-.08,0-.1-.05-.02-.15.34-.61.34-.61.1-.14.18-.27.26-.4.6-1.07.72-2.6.72-4.16,0-1.16-.07-2.34-.07-3.35v-.07c0-2.44,1.46-3.41,1.45-3.43h0c.56.09,1.13.16,1.7.2-.32.4-.91,1.36-.92,2.69,0,1.72.48,4.24.48,4.82,0,0,0,.02,0,.07,0,.27-.16,1.17-.35,2.04-.07.31-.19.83-.19,1.48,0,.47.07,1,.27,1.55-.17-.02-.32-.03-.46-.03h-.06s-.07,0-.11,0h-.02c-.13,0-.26.02-.37.02-.44,0-.78-.07-.79-.07v.02Zm-2.22-.84c-.17-.03-.44-.1-.68-.17-.21-.06-.41-.12-.56-.18-.07-.03-.13-.06-.17-.08v.02l-.02-.05c.12-.11.37-.39.49-.59.04-.07.07-.12.23-.47.23-.51.64-1.39.64-1.39.27-.69.31-.95.31-1.07,0-.04,0-.06,0-.09l.39-4.8c.05-2.01,1.16-3.17,1.3-3.32.23.07.47.12.7.17-.44.4-1.38,1.51-1.38,3.52v.07c0,1.02.07,2.2.07,3.34,0,1.54-.13,3.03-.67,4-.07.12-.15.25-.23.36,0,0-.34.36-.4.74h0Zm-1.65-.72s-.02,0-.02-.02l-1.11-.76c-.15-.14-.18-.26-.18-.36,0-.16.12-.31.12-.31,0,0,1.55-1.55,2.27-3.09.39-1.21.52-4.03.53-4.04.17-1.4.54-2.2.85-2.63.23-.32.42-.44.49-.48.08.03.17.07.27.09-.35.4-1.22,1.58-1.27,3.41l-.38,4.85.04.05h-.04s-.02.29-.27.95c0,0-.4.87-.63,1.38-.17.36-.18.38-.22.45-.07.13-.34.44-.42.5h-.02Zm2.56-13.27c0-.22.07-.37.13-.45.34.3.79.59,1.33.59.06,0,.12,0,.19,0,.72-.11,1.5-.31,2.04-.31.25,0,.45.05.57.14.38.27,1.02.93,1.85.94.28,0,.57-.08.87-.27.77-.51,1.49-1.02,1.84-1.26,0,0,.02-.02.02-.02,0,.57.11.88.12.9.04.56.13,1.06.24,1.51-.47.07-1.98.25-3.76.25-.42,0-.87-.02-1.31-.03-.69-.04-1.4-.12-2.08-.25-.38-.07-.75-.16-1.1-.26-.17-.05-.33-.11-.49-.16-.37-.58-.47-.99-.47-1.27v-.02Zm-.36-1.42c-.09-.07-.26-.54-.25-.88,0-.18.05-.31.07-.32.3-.26,1.07-1.18,1.07-1.18.94-1.68,1.85-2.19,2.21-2.34-.13.83-.22,1.8-.23,2v.02c.04.42.71,1.37,1.11,1.68.39.24,1.11.54,1.5.57.22,0,1.71.59,1.99.68l1.3.43c-.38.27-.98.69-1.6,1.1-.25.16-.47.22-.69.22-.64,0-1.24-.57-1.65-.88-.22-.16-.48-.2-.77-.2-.62,0-1.4.21-2.09.31-.05,0-.1,0-.15,0-.44,0-.86-.26-1.18-.56,0-.02-.02-.02-.02-.04-.02-.02-.04-.03-.07-.04-.25-.24-.42-.45-.54-.57Zm3.22-2.7c.02-.2.12-1.36.27-2.2.03-.19.07-.36.1-.5.17-.72.78-.96,1.3-1.25.55-.34,1.07-1.38,1.54-1.65.47-.3,1.89-.58,2.98-.82.36-.08.85-.11,1.34-.11h.32c-1.17.21-2.6.59-3.29,1.33-.79.87-1.37,1.57-1.38,2.34,0,.35.13.7.41,1.05.71.87,1.45,1.69,2.31,1.71.09,0,.19,0,.28-.03,0,.07-.02.12-.02.16-.02.28.02,1.62-.11,2.64-.02.13-.02.26-.04.38,0,0-.02,0-.02.02,0,0-.03.03-.09.07h-.02l-1.51-.5c-.24-.06-1.68-.66-2.06-.69-.24,0-1.01-.31-1.32-.51-.27-.14-.93-1.17-.96-1.38v-.04Zm9.53-6.41s.05,0,.07-.03c.33.02.94.09,1.54.4.17.09.36.2.53.32.37.29.63.62.81.97.17.36.26.75.26,1.13,0,.27-.04.54-.12.8-.12.39-.32.75-.53,1.06-.31.45-.67.78-.84.85-.34.16-.8.29-1.01.92-.18.56-.48,1.81-1.02,2.27,0-.03-.12.09-.11.26,0,.05,0,.12.02.19.02.08.05.18.11.31.22.53.94,1.92.94,2.93v.13c0,1.06.19,2.06.45,2.89.32.87.66,1.83,1.12,1.96.16,0,.57.14.64.25.21.22.75.43.91.5.06.02.17.08.22.12-.02,0-.05.02-.08.03-.19.06-.37.07-.52.07-.22,0-.36-.04-.36-.04.02.02-.2-.14-.41-.16,0,0-.02,0-.06,0-.18.04-.27.17-.32.19-.02.02-.32.1-.51.28-.02.02-.04.03-.05.06l-.02.03s-.02.07-.02.1c-.05.12-.12.33-.15.43-.04.15-.12.56-.12.77,0,.21-.04.34-.04.35-.03.02-.36.24-.44.23-.07,0-.16.02-.24.02-.13,0-.26-.02-.31-.07-.15-.12-.34-.36-.54-.52-.02-.02-.05-.05-.08-.09-.1-.13-.2-.34-.2-.63,0-.07,0-.13.02-.2.08-.54.38-.88.43-1.15v-.02c-.02-.26-.62-1.78-.62-1.81-.02-.04-.98-1.34-1.12-1.62-.15-.28-.66-.82-1.01-2.16-.12-.45-.22-1.01-.28-1.67,0-.04-.11-.31-.11-.88v-.21c0-.15.02-.31.04-.5.14-1.06.09-2.44.11-2.67,0-.05.02-.18.03-.34.06-.5.21-1.38.43-1.96.29-.77,1.46-2.72,1.46-2.72.05-.08.02-.18-.06-.22-.02-.02-.06-.02-.08-.02-.06,0-.12.02-.15.08,0,0-1.17,1.94-1.5,2.77-.22.58-.36,1.36-.43,1.88h-.02c-.1.03-.2.05-.3.05-.61.02-1.35-.71-2.04-1.58-.24-.31-.33-.57-.33-.83,0-.59.5-1.26,1.29-2.11.93-1.04,4.06-1.39,4.74-1.44l.02.02Zm2.24-.55s.25-.05.25-.06c.08-.02.14-.1.13-.18,0-.02,0-.04,0-.06-.02-.09.31-.33.72-.45.41-.13.81-.19.81-.2.07,0,.14-.07.14-.16,0-.4.63-.57,1.35-.56.58,0,1.12.1,1.12.1.17-.02.28-.02.39-.02.52,0,1.02.17,1.4.36.37.18.62.36.62.36l.13.03c.06-.02.12-.02.17-.02.69-.02,1.12.9,1.13.9l.11.09c.39.12.48.44.48.82,0,.33-.09.63-.11.71-.05.14.06.17-.37.27h-.06c-.1,0-.23-.04-.37-.1-.43-.19-.43-.09-.98-.43l-.69-.51s-.12-.04-.18,0c-.06.03-.09.09-.08.16v.12c0,.16-.03.45-.13.53-.19.17-.21.16-.28.16h-.08c-.32.03-.59.37-.8.48-.25.15-.56.47-1.01.49-.02,0-.57.12-.93.12-.13,0-.25-.02-.27-.03-.11-.06-.22-.07-.32-.07-.2,0-.41.04-.54.04h-.08c-.08-.2-.27-.44-.58-.64-.02-.05-.04-.1-.07-.15-.19-.4-.49-.77-.9-1.09-.15-.12-.31-.21-.46-.3,0-.02,0-.02,0-.04-.02-.04-.02-.07-.02-.12-.02-.21.26-.47.38-.54v-.02Zm7.6,2.34c-.09.25-.6,1.41-.71,2.01-.04.15-.05.14-.05.15,0,0-.05-.02-.09-.05-.03-.02-.07-.06-.07-.05,0,0,0,0-.02-.02-.04-.03-.1-.05-.15-.03h-.02s-.03.02-.04.02c0,0-.02.02-.02.03-.04.05-.17.19-.22.22,0,.02-.16.03-.26.04l-.27-.3c-.06-.07-.17-.07-.24,0-.07.06-.07.16,0,.23l.23.26s-.04.05-.07.07v.02c-.19.07-.32.21-.37.44-.03.11.04.07-.11.12h0c-.16.02-.76-.29-.76-.29l-.98-.53-.14-.07-.13-.02-2.33.6c.17-.28.32-.59.42-.92.09-.29.14-.59.14-.9,0-.17-.02-.35-.05-.52.05.07.07.12.09.16.07.19.27.22.39.22.18,0,.38-.04.54-.04.07,0,.14,0,.17.02.12.07.27.07.43.07.42,0,.97-.12.98-.12.58-.02.97-.44,1.15-.53.21-.14.56-.41.62-.43h.08c.16,0,.32-.07.52-.26.17-.16.21-.39.23-.57l.43.32c.47.3.63.31.86.39-.04.07-.08.15-.13.26h-.02Zm-4.89,3.92c-.07.09-.17.17-.27.24l-.86.57c-.07.05-.1.15-.05.23.05.07.15.1.23.05l.86-.57s.07-.05.11-.08c0,.18-.02.4-.04.5-.05.04-.22.13-.45.23-.82.36-2.36.89-2.36.89l-1.05.52-1.12.56c.64-.66.88-1.82,1.06-2.33.17-.48.43-.52.84-.72.25-.12.57-.43.89-.86.04.03.09.05.15.03l2.41-.62v.16c0,.29-.06.83-.37,1.2h0Zm.68,2.3l-.24-.07h-.1s-.65.21-.87.48c-.17.22-.37.64-.37,1.16v.11c0,.13,0,.28,0,.42,0,.26.05.57.32.77-.42-.02-.91-.03-.98-.04-1.47-.1-1.95-1.46-1.96-1.46-.06-.1-.08-.22-.08-.36,0-.22.05-.45.07-.51l.87-.44s1.51-.52,2.37-.9c0,0,.02,0,.02-.02.02.02.03.05.06.07,0,0,.64.47.91.78v.02Zm.23.4l.49.13c.03.07.08.16.1.21-.11.05-.33.14-.45.13h-.06l-.18-.09c-.08-.04-.18,0-.22.07s0,.18.07.22l.18.09c.08.03.14.04.21.05.27,0,.56-.14.69-.23.08-.06.11-.15.1-.21,0-.09-.03-.19-.07-.26h.07s.78.12.91.12c.04,0,.37.06.61.1h0c-.07.05-.16.07-.16.07l-.78.12c-.06,0-.1.04-.13.1-.02.05-.02.11,0,.16l.25.4s.04.09.04.13c.02.16-.28.37-.28.37l-.07.18c.02.1.02.18.02.26,0,.45-.27.55-.27.56-.25.16-.46.21-.67.21-.42,0-.85-.24-1.21-.45-.13-.07-.26-.15-.38-.2-.27-.12-.3-.26-.31-.56v-.53c0-.43.18-.82.3-.97.04-.09.52-.28.67-.35l.5.13h.02Zm-6.54,11.53l-.5.22c-.14-.48-.52-1.77-.81-3.16-.21-.97-.25-1.78-.25-2.31v-.25c.07.11.13.18.14.22.17.36,1.11,1.61,1.12,1.63,0,.02.6,1.62.58,1.65,0,0-.34.52-.42,1.11-.02.09-.02.17-.02.26,0,.26.07.48.16.65h0Zm-8.1.36h.12c0-.66-.48-3.15-.48-4.82,0-1.55.91-2.56,1-2.67.41.02.82.03,1.21.03,1.85,0,3.41-.2,3.84-.26.17.6.38,1.05.57,1.38,0,0-.02.02-.02.03,0,0-.03.26-.03.69,0,.54.05,1.38.26,2.38.3,1.44.7,2.77.84,3.23l-.66.28s-1.66.4-2.04.45c-.42.07-2.05.33-2.12,1.44v.95c0,.29.04.54.28.73.17.14.33.25.46.32-.22.15-.41.31-.54.46-.37.43-.7.91-.85,1.37-.28-.19-1-.67-1.25-.71-.06,0-.37-.05-.69-.1,0-.02,0-.04-.02-.06-.22-.54-.29-1.07-.29-1.54,0-.6.12-1.1.18-1.41.19-.88.34-1.76.35-2.15l-.12-.02h0Zm10.81,11.81c.13.02.82.45.84.48.07.05.47.45.47.46.07.18.24.28.24.3.17.07.47.31.49.31,0,0,.7.87.78.96.02.02.04.07.05.08h-.02l-.92-.59-.75-.29c-.07-.02-.17,0-.21.07s-.02.17.04.22c.27.2.61.87.62.87,0,0,.23.55.35.81.02.05.02.08.02.1t-.1.08s-.15-.13-.16-.13l-.39-.66-.78-1.03s-.02-.02-.02-.03c-.07-.07-.17-.07-.24,0-.05.05-.06.13-.03.19l.15.45.17.43.2.68s.13.48.18.61c0,0,0,0-.03.04-.02,0-.06-.02-.08-.03,0,0-.02,0-.02,0l-.76-1.58s-.04-.07-.07-.08c-.03-.02-.07-.02-.11,0-.04.02-.08.05-.1.1,0,.02,0,.04,0,.06,0,.05,0,.19-.03.36,0,0-.06.08-.17.15-.12.07-.26.12-.27.12-.1.02-.28.07-.42.23v-.05s.02-.12.02-.12h.02c.08-.07.25-.15.34-.24.06-.08.06-.14.06-.19,0-.2-.1-.42-.14-.52-.12-.22-.58-.46-.61-.51-.07-.06-.59-.5-.59-.5-.36-.27-.57-1.19-.66-2.27v-.08c-.06-.68-.07-1.44-.1-2.15v-.28c0-.78.11-1.49.27-2.12.19-.72.45-1.34.7-1.87.41-.85,1.19-1.46,1.42-1.63,2.64.97,2.87,1.65,2.87,2.1,0,.14-.02.27-.03.41.04.36-1.11.59-1.11.59-.08,0-.14.07-.15.16,0,.25-.37,1.05-.6,1.51-.12.23-.2.39-.2.39l-.5,1.02s-.69,1.6-.75,2v.06c.07.53.71.51.87.58l-.04.02Zm2.27-13.72c.45.12,1.82.53,2.44.97l.03.02c.08.06.15.12.19.17,0,0,1.64,2.29,1.82,2.71-.99-1.02-2.78-1.68-2.79-1.7-.08-.03-.18,0-.22.09-.03.08,0,.18.09.21,0,0,2.74,1.11,3.14,2.29.05.22.08.37.08.37,0,0,.17.59.16.64-.03.63-.36,2.49-1.73,2.85.21-.44.37-.94.37-1.53,0-.79-.3-1.72-1.16-2.78-.06-.07-.17-.08-.23-.02-.07.06-.08.16-.02.24.81,1.02,1.08,1.87,1.08,2.57,0,.63-.21,1.16-.46,1.63-.36.56-1.3,1.3-2.56,1.49h-.12c-.46,0-.79-.13-1.01-.27-.22-.13-.32-.26-.33-.26,0,0-.05-.05-.08-.06.2-.42.45-.96.52-1.31.32-.06,1.16-.22,1.26-.88,0-.12.03-.26.03-.43,0-.64-.41-1.41-2.92-2.34.28-.23.91-.62,1.99-.62,0,0,.69-.03,1.23-.03.09,0,.17-.07.17-.16s-.07-.16-.17-.16c-.56,0-1.25.03-1.25.03-1.58,0-2.33.79-2.41.88-.1.07-1.07.75-1.59,1.81-.24.5-.48,1.08-.67,1.74-.77-.5-2.39-2.15-3.12-2.91-.23-.25-.37-.4-.37-.4-.07-.07-.17-.07-.24,0-.07.07-.07.16,0,.24,0,0,.09.09.23.25-.21.11-.59.31-.96.54-.09-.05-.32-.18-.56-.37-.13-.12-.15-.19-.16-.47v-.95c-.06-.68,1.42-1.09,1.81-1.11.45-.05,2.1-.46,2.12-.46l.73-.31s.02,0,.03,0h.05s.08-.04.09-.07l.66-.28s.03.03.05.04c.15.12.35.36.54.52.17.12.36.14.52.14.11,0,.2,0,.27,0,.28-.04.57-.28.59-.28.25-.17.17-.45.2-.6,0-.15.09-.59.12-.7.03-.08.13-.38.17-.47.07-.07.32-.16.44-.22.09-.07.2-.14.22-.15.02,0,.08.03.13.06.07.03.13.07.13.07.05.02.22.07.49.07.18,0,.4-.02.62-.1.12-.04.23-.1.3-.18h0Zm4.06-5.48c.6.42.73.49.82.72.27.43,1.31.5,2.08.54.24,0,.43-.02.58-.07.1-.06.18-.14.26-.25,0,0,.42.1.99.1h.02c.19,0,.42-.02.63-.05l.07,2.94h-.16s-.06-.02-.16-.08c-.32-.18-.88-.57-1.01-.68-.35-.22-1.78-.22-2.46-.35-.07-.02-.13-.02-.19-.02-.69,0-1.11.58-1.23.71-.13.15-.34.31-.47.32-.35.07-.63.47-.8.63-.09.1-.24.24-.32.31-.04.03-.06.05-.06.05-.29.14-.32.5-.33.81,0,.14,0,.27.02.39-.11-.07-.24-.12-.37-.18-.05-.4-.07-.77-.07-1.11,0-3.1,1.74-4.43,2.14-4.71v-.02Zm.93-2.1c.07-.2.02-.09.12-.76.08-.6.71-2.46.71-2.46.15-.29.56-.56.56-.57.31-.58.71-.64.94-.64.11,0,.17.02.17.02h.11s.06-.03.09-.04c-.07.03-.13.06-.17.07-.35.17-.67.81-.77,1.35,0,.06,0,.12,0,.16,0,.45.28.73.42.92.14.18.3.57.3.78v.11c0,.31.09.81.3,1.28.06.12.11.28.15.43.06.23.07.42.07.59,0,.12,0,.23-.02.35,0,0-.29,1.34-.54,1.39-.06.02-.23.05-.45.05-.34,0-.79-.05-1.16-.12-.18-.04-.35-.08-.46-.13-.11-.03-.13-.07-.14-.07-.16-.38-.38-.47-1.02-.92,0,0-.02-.02-.02-.02-.08-.07-.1-.12-.11-.22-.02-.42.8-1.21.95-1.54l-.02.02Zm3.66-4.34c.18,0,.38.02.61.07,0,.02.33.31.41.37.02.02.07.05.12.08-.06.07-.11.16-.12.3,0,.16.12.31.29.36.3.12.8.45,1.01.6-.06.09-.17.22-.44.36-.08.04-.12.14-.07.22.03.06.09.09.15.09.03,0,.05,0,.08-.02.15-.07.26-.15.35-.23.02.11.03.23.05.35-.02,0-.05.02-.07.02-.25.17-.78.29-.78.3-.09.02-.15.11-.13.2.03.09.11.15.2.13.02,0,.49-.1.83-.31,0,.09.02.17.02.2v.02c.02.16.17.53.17.78,0,.08-.02.09-.02.1-.19.16-.5.3-.74.42-1.62,0-2.53-.31-2.67-.35-.1-.31-.15-.62-.15-.8v-.1c0-.33-.17-.73-.37-.98-.17-.22-.36-.4-.36-.71,0-.04,0-.08,0-.12.03-.41.48-1.1.56-1.09.19-.07.46-.26,1.02-.26h.03Zm1.43.73c.07.05.13.09.18.14s.09.11.13.16c-.1-.06-.2-.11-.29-.15-.09-.04-.08-.06-.08-.06,0,0,.02-.06.07-.1h0Zm-1.29,6.41c-.37,0-.67-.04-.81-.07.22-.49.29-1.08.32-1.1,0-.14.02-.26.02-.4,0-.2-.02-.41-.09-.68-.03-.15-.08-.3-.14-.43.41.11,1.24.29,2.44.3,0,.79.49,1.11.47,1.12-.36,1.03-1.39,1.25-2.21,1.25h0Zm-.32,8.99s-.07.04-.09.05c.03,0,.07-.02.09-.05Zm-.04-.26s-.11-.05-.19.03c-.06.08-.05.11-.05.12h0c.06.21.21.31.33.35-.06.08-.12.17-.13.17-.06,0-.11.02-.16.05,0-.02-.02-.05-.06-.07l-.22-.18c-.07-.06-.17-.05-.23.02-.06.07-.05.17.02.23l.21.16s-.05.02-.06.02c-.27.09-.28.25-.46.28-.07.02-.17.03-.27.03-.47,0-1.11-.3-1.26-.49-.23-.27-.47-.75-.47-.75-.04-.08-.14-.12-.22-.07-.08.04-.12.14-.07.22,0,0,.02.06.07.15-.02,0-.05,0-.07.02l-.17.14c-.04-.18-.09-.37-.14-.55l2.18-.5c.67-.35.85-.61.91-.75.07-.03.28-.07.42-.12.22-.08.81-.45,1.01-.58.07-.06.14-.07.22-.07.05,0,.1,0,.17.02,0,0,.07.16.09.21-.11.54-.49.76-.48.77l-.08.14s-.02.85-.04,1.18c0,.05-.03.07-.19.07-.11,0-.2-.02-.2-.02-.02,0-.11-.03-.18-.07-.05-.03-.09-.04-.12-.06,0-.06-.04-.1-.09-.12h-.02Zm1.94-3.84s.72.45.77.68c.04.12.07.28.07.44,0,.26-.07.48-.39.59,0,0-.17.02-.36.03-.12.02-.26.02-.36.03-.03-.12-.11-.26-.31-.35-.07-.02-.16-.03-.25-.03-.12,0-.28.03-.41.13-.16.12-.79.5-.91.54-.16.07-.46.03-.63.31-.03.06-.11.25-.72.58l-2.21.5c-.45-.79-1.73-2.54-1.74-2.57,0,0,0-.02-.02-.02-.06-.07-.12-.12-.19-.18v-.02s-.07-.31-.07-.61c0-.27.07-.5.17-.53.04-.03.07-.05.11-.09.08-.07.24-.21.35-.34.13-.17.52-.54.58-.52.3-.04.52-.26.68-.43.14-.17.5-.6.98-.6.05,0,.09,0,.14,0,.68.1,2.27.2,2.31.28.24.16,1.06.78,1.35.83.07,0,.17,0,.32.02.24.05.5.15.6.44l.06.08s.13.1.12.26c0,.07-.02.17-.11.3-.02.04-.03.08-.02.13,0,.04.04.08.07.11l.02.03Zm-1.15-12.47h0s.56.11.67.33c.07.06.53.32.52.42.22.41.56.27.52.57v.07l.07.17s.25.18.23.3l.12.15s.22.06.31.41c0,.03.09.39.09.4,0,.03.09.47.21.69.02.03.02.07.02.12v.13s0,.12.1.19c0,0,.11.07.18.15.03.03.07.07.1.1h0s-.08.07-.09.12c0,.05,0,.11.04.14,0,0,.2.21.19.41,0,.03,0,.07,0,.1-.02.07-.02.13-.02.2,0,.19.06.35.06.45,0,.1-.02.16-.17.28-.02.02-.31.3-.54.39-.14.06-.28.07-.38.07h-.02s-.05-.09-.07-.13c0,0-.03-.06-.04-.08-.14-.22-.41-.26-.43-.98v-.07c.24-.11.49-.24.68-.4.12-.11.13-.23.13-.35,0-.29-.15-.69-.17-.78,0,0,0,.02,0,.04,0-.02,0-.02,0-.04v-.02c0-.15-.17-1.12-.17-1.21,0-.02-.02-.02-.02-.04.02-.05.03-.09.03-.1l-.07-.17s-.22-.15-.48-.32c0-.02.02-.04.02-.06-.02-.12-.1-.37-.35-.59-.22-.19-.53-.39-.6-.43-.06-.05-.45-.39-.45-.39-.27-.08-.48-.12-.66-.12.19-.07.38-.12.47-.12h-.03Zm3.49,1.16s.5-.75.5-2.04c0-.57-.09-1.25-.37-2.02v-.04l-.51-1.92c-.02-.09-.12-.14-.21-.12-.09.02-.14.12-.13.21l.36,1.35c-.12.02-.23.08-.33.15-.02-.18-.06-.38-.16-.6-.42-.92-1.86-1.54-2.38-1.76-.11-.05-.22-.07-.33-.07h-.02s0-.04-.02-.06c0,0-.14-.24-.14-.62,0-.31.09-.72.46-1.15.88-1.02,1.1-1.11,1.41-1.15.37-.04,1.01-.13,1.01-.13.07-.03.62-.42,1.31-.42.24,0,.51.05.76.18-.1.12-.17.22-.23.32-.21.36-.47,1.12-.51,1.35-.02.15-.42,1.18-.42,1.6h0c0,.43.22,2.02.31,2.3.08.21.35.85.37.95-.02.12-.1.59-.1.59-.02.07.02.12.07.16.05.03.12.04.17,0,0,0,.09-.05.19-.11.05-.02.1-.05.13-.07.03-.02.03,0,.03-.02h.03c.11,0,.41.02.53-.29.04-.16.08-.52.08-.85,0-.11,0-.21-.02-.3-.04-.27-.11-.46-.1-.58,0-.04,0-.07.02-.11,0-.02.02-.05.04-.08.15.43.52,1.3,1.21,1.51h.07c.18,0,1.12-.02,1.99-.57l-.12,1.22-.35,1.21.02.13s.27.53.54.67c.03,0,.04,0,.07,0,.32-.11.24-.3.35-.5.04-.13.07-.26.08-.33l.13-.1h0v.12c0,.54.22,1.68,1.69,2.78-.76.4-1.21,1-1.22,1.01-.02.03-.03.07-.03.11-.16.02-.28.04-.35.05-.2.05-.81.29-.9.27-.32.03-.66.36-1.1.49-.64.29-.34.82-.83.86-.27.06-.45.22-.55.4-.18.36-.27.78-.3.76-.12.06-.17.19-.18.3l-1.9-.91c0-.06-.02-.11-.02-.15s0-.07.02-.1c.02-.07.03-.14.03-.21,0-.21-.08-.37-.16-.49.02-.04.05-.08.06-.15v-.02c-.05-.27-.28-.43-.42-.52v-.09c0-.07,0-.17-.07-.27-.07-.12-.17-.58-.17-.58,0-.03-.02-.1-.03-.18.05-.12.62-1.4.64-1.44h-.04Zm-1.11-4c-.07.09-.16.16-.24.2-.14.07-.43.15-.62.19,0-.07-.02-.15-.04-.22-.13-.71-.23-.74-.4-.86-.2-.16-.32-.31-.38-.36-.07-.06-.17-.09-.33-.1-.09,0-.22.04-.28.14-.07.08-.1.19-.1.27v.04l-.18-.11c-.29-.18-.56-.24-.81-.24-.08,0-.17,0-.25.02.02-.27.08-.9.22-.97.19-.16.56-.44.87-.5.05,0,.09-.02.13-.02.07,0,.13,0,.2.03.49.19,1.9.87,2.2,1.58.1.22.13.4.13.54,0,.16-.04.26-.1.36h0Zm-1.2.59c.02.19-.37.16-.95.51-.17.12-.35.15-.52.15s-.34-.05-.47-.09c-.12-.05-.19-.09-.2-.09.02.02-1.03-.97-1.05-1.02-.06-.08-.15-.14-.26-.14-.12,0-.21.06-.28.15-.02.02-.04.05-.04.06h-.28c-.23,0-.36-.1-.42-.17.12-.07.37-.19.37-.19.02-.02.62-.35,1.2-.4.11,0,.2-.02.28-.02.16-.02.29-.03.41-.03.22,0,.39.03.64.19l.58.34s0,0,.02,0c.1.16.2.33.2.33.05.08.15.11.22.06.08-.05.11-.15.06-.23,0,0-.14-.23-.25-.42-.06-.11-.13-.21-.13-.21-.02-.04-.02-.07-.02-.09s0-.04.03-.07h.02s.04,0,.07.02c.02,0,.04.02.06.02,0,0,.17.21.38.37.23.21.07-.13.28.67.02.1.03.19.03.26v.09-.02Zm6.99-2.43h0s.09.05.22.12l-.02.11c-.02.09.03.18.13.2.09.02.18-.03.2-.12l.02-.06c.12.03.25.07.39.08l-.46.73s-.02,0-.02.02c-.82.63-1.85.66-2.02.65h-.04c-.56-.12-1-1.52-1-1.52,0,0,0-.02,0-.02.05-.1.09-.22.09-.35,0-.26.13-.96.17-.98.11-.16.45-.75.56-.97,0-.07.37-.22.5-.21.1,0,.47.07.76.07.12,0,.24,0,.35-.06.16-.09.62-.45.9-.68.04.17.09.39.1.47.07.31.47.7.64.88.04,0,.23.67.22.8v.02l-.52.83h-.02c-.46,0-.93-.29-.93-.28-.07-.05-.18-.02-.23.06-.05.08-.02.18.06.23v-.02Zm-3.11-4.25s.05-.04.07-.07v-.02c.28-.31.61-.64.71-.71.07-.08,1.2-.36,1.26-.38h.22c.42,0,1.25.08,1.73.58l.12.05s.77.07.93.46c.23.5.66,1.34.64,1.53v.02c-.03.2-.17.41-.18.64,0,0,0,.04,0,.08v.03c0,.22-.07.88-.13,1.02,0,.02-.02.05-.03.08-.06.15-.1.3-.1.46v.11c.02.16.12.57.12.77v.06c-.07.12-.3.19-.35.46,0,.12-.06.69-.13.7-.22.18-.32.42-.33.59v.02c0,.11.05.33.05.59,0,.19-.03.37-.1.45-.06.07-.11.13-.17.18-.07,0-.21,0-.32.1l-.17.13-.07.1s-.04.18-.09.36c-.02.06-.03.12-.06.17-.08-.12-.19-.28-.25-.37l.33-1.16.17-1.55v-.07l1.18-1.87c.02-.09.02-.11.02-.12-.02-.26-.1-.82-.32-1.06-.12-.08-.56-.63-.53-.66-.02-.2-.17-.76-.17-.76,0-.05-.05-.1-.11-.12-.06-.02-.12,0-.16.02,0,0-.9.72-1.06.81,0,0-.08.02-.18.02-.25,0-.59-.07-.73-.07h-.02c-.23.02-.62.09-.8.4-.09.18-.45.81-.52.92-.15.23-.22.83-.23,1.17,0,.11-.05.2-.12.32-.07.1-.17.21-.22.35-.02.07-.04.15-.04.23,0,.21.07.39.11.62,0,.07.02.16.02.26,0,.3-.05.67-.07.77l-.04.02c-.05.02-.12.02-.16.02h-.03c-.07,0-.15.03-.22.07.02-.11.04-.21.05-.25v-.05c-.02-.26-.32-.85-.37-1.06-.06-.17-.28-1.79-.29-2.17v-.02c0-.3.38-1.33.42-1.56.02-.14.3-.96.47-1.25.05-.08.16-.23.29-.38l-.02-.03Zm9.19,6.67s.5.9.52,1.28c-.37-.24-.78-.47-1.23-.65-.09-.03-.18,0-.22.09-.03.08,0,.18.09.21.52.21.99.49,1.39.77.56.4.85.76.99.95-2.16.36-3.97,1.21-4.45,1.44-1.52-1.08-1.69-2.14-1.7-2.61,0-.13.02-.21.02-.24.07-.06.13-.13.2-.22.14-.19.17-.43.17-.65,0-.27-.05-.55-.05-.59.02-.1.09-.25.21-.34.28-.27.22-.83.25-.94-.02-.02.13-.13.27-.27.07-.1.07-.18.07-.26,0-.27-.12-.68-.13-.81v-.06c0-.06,0-.12.03-.2.29.11,2.28.94,3.58,3.09h-.02Zm3.36,2.84c.29,0,.57.02.86.04-1.81.84-2.81,3.32-3.07,4.13-.46-.68-1.22-.83-1.68-.82-.25,0-.42.03-.43.04h-.02c-.17-.04-.35,0-.42-.04-.07,0-.88-.31-1.15-.34-.03,0-.25-.07-.45-.14-.28-.11-.6-.26-.66-.3-.11-.07-.2-.06-.32-.06h-.14c.2-.22.63-.64,1.2-.88.18-.08,3.17-1.63,6.27-1.63h0Zm-11.74,5.93v-.02c-.02-.07-.02-.13-.02-.18v-.05c.31-.22.25-.62.43-.88.07-.12.17-.21.32-.25.78-.21.57-.88.86-.87.45-.14.9-.45.98-.47h.04c.26,0,.82-.26.96-.28.08-.02.27-.05.48-.07.13-.02.26-.02.36-.02h.13c.11.07.41.21.72.32.22.08.41.16.56.16.15,0,.93.32,1.15.34.07,0,.21.02.32.03.04,0,.07.02.1.02-.03.07-.09.17-.1.31,0,.07.05.19.13.22.04.02.13.07.21.12.03.03.07.05.07.07,0,0-.14.18-.16.39,0,.02,0,.06.02.1.06.18.36.6.39.71.02.06.04.14.04.2,0,.07-.02.1-.02.1-.07.07-.2.11-.22.32,0,.06.03.13.07.17h0s-.03.13-.05.14c-.12.12-.23.33-.3.41-.11.12-.37.54-.45.59,0,.07-.42-.05-.62.31,0,0-.01,0-.04.03-.12.08-.43.17-.48.16h-.05c-.22.04-.53.24-.69.23v.02c-.05-.12-.08-.31-.08-.46,0-.12,0-.24.03-.26.02-.09.2-.22.3-.41.03-.07.04-.16.04-.24,0-.11-.02-.21-.09-.31-.06-.06-.18-.19-.17-.27,0-.03,0-.06.05-.11.32-.33.81-1.27.93-1.57.04-.11.06-.21.06-.31,0-.21-.05-.35-.13-.45-.14-.13-.75-.46-.89-.53-.17-.07-.91-.22-1.2-.23h-.37c-.22,0-.48,0-.68.12-.19.12-.71.3-.86.4-.13.1-.54.48-.55.48l-.59.5s-.69.67-.82,2.04c-.02-.04-.04-.09-.04-.13v-.05c.02-.07.02-.12.02-.17,0-.15-.04-.31-.07-.44h-.03Zm5.75,5.53c-.32.48-.64.97-.81,1.16-.17.2-.55.39-.85.5-.27.1-.48.15-.48.15l-3.26.39-.22.02c-.1-.34-.37-1.25-.49-1.83,0-.05-.02-.1-.02-.16-.02-.6.72-1.58.82-1.63.17-.14.29-.4.36-.57.29.26.87.69.88.7.07.03.42.1.52.11,0,0,.23.07.3.24.11.17.27,1.06.93,1.12.06,0,.11,0,.16-.02l.37-.32c.17.07.49.19.56.22.04.02.22.11.49.11.2,0,.45-.05.73-.21v.02Zm3.85-5.63v.16s-.43,1.46-1.45,1.81c-.14.05-.47.26-.54.29,0,.02-.02.04-.03.06.02-.08.02-.13.02-.13.02-.09-.04-.17-.14-.19-.09-.02-.17.05-.19.14,0,0-.15.88-.37,1.54-.08.19-.13.31-.13.31-.1.17-.21.34-.31.49-.62.88-1.14,1.02-1.45,1.02-.15,0-.25-.03-.3-.06l.19-.12c.07-.05.1-.15.06-.23-.05-.07-.15-.1-.23-.06l-.34.21s-.03.02-.05.04c-.17-.07-.34-.14-.35-.14l-.17.03-.36.33s0,0,0,0h-.02c-.24.05-.54-.68-.63-.93-.16-.31-.42-.41-.58-.43-.05,0-.37-.06-.41-.07,0-.03-.82-.66-.9-.76-.38-.45-.46-1.08-.47-1.08-.05-.31-.07-.59-.07-.84v-.23c.07-1.44.75-2.05.74-2.06l.59-.5s.43-.4.52-.46c.06-.05.61-.26.85-.4.06-.05.3-.07.51-.07h.37c.16,0,1.02.18,1.05.2.08.02.78.44.78.45,0,0,.06.11.05.24,0,.07,0,.13-.04.2-.07.23-.61,1.22-.85,1.45-.1.1-.15.22-.15.35,0,.29.24.45.26.49,0,0,.02.03,0,.08,0,.04,0,.09-.02.12,0,.05-.21.19-.3.43-.03.11-.04.23-.04.37,0,.2.02.42.1.6.06.14.2.19.31.18.27,0,.64-.21.71-.24h.07c.22-.03.62-.11.79-.41.07-.04.3-.02.5-.14.19-.15.43-.56.5-.64.11-.13.24-.36.28-.39.1-.11.15-.23.16-.38,0-.05,0-.12-.04-.17.03-.02.06-.05.09-.08.11-.11.13-.23.13-.35s-.02-.22-.06-.31c-.07-.19-.39-.64-.39-.7,0-.04.1-.22.15-.36l-.05-.05h.06c-.07-.27-.27-.35-.41-.41.02-.05.06-.13.09-.23,0-.03,0-.04,0-.07v-.02h.14c.61.02,1.65.17,1.74,1.78,0,.14,0,.26,0,.35h-.02Zm4.02-5.73c.21,0,.4.03.53.07-.61.59-2.34,2.41-2.36,4.34,0,1.46,1.04,2.91,4.15,3.81-.37.19-.74.26-1.12.26-.2,0-.41-.02-.61-.07-2.17-.44-4.26-3.14-4.29-3.16-.02-.31-.08-.58-.17-.81.03-.03.06-.07.06-.12,0-.03,1.09-3.37,3.04-4.14.27-.16.54-.2.78-.2Zm.87.21s.02-.02.02-.03c.1.02.21.02.32.02h.37c.59,0,1.36.06,2.24.72l.15.02,1.15-.36c.13-.02.27-.03.41-.03,1.53,0,2.29,1.4,2.29,2.29.02.91-1.37,2.24-1.37,2.25l-1.45,1.17c-.37.64-1.72,1.39-2.28,1.73-3.28-.89-4.2-2.25-4.21-3.57,0-1.85,1.89-3.78,2.36-4.21Zm7.81,29.58c-.52-.07-1.26-1.86-1.23-3.54,0-.45.04-.9.15-1.3.4-1.63,1.55-5.6,1.55-10.33,0-1.02-.06-2.06-.18-3.13-.37-3.13-.79-5.42-1.45-7.1v-.02c.33-.45.63-1.01.64-1.54,0-1.03-.86-2.61-2.63-2.62-.16,0-.32.02-.49.04l-1.09.33c-.91-.67-1.77-.73-2.37-.73h-.37c-.17,0-.3-.02-.35-.04,0,0-.38-.16-.86-.16-.12,0-.24,0-.37.03h-.02c-.5-.09-1-.13-1.49-.13s-.98.04-1.45.11c-.07-.12-.38-.58-1.06-1.08v-.22c-.02-.56-.56-1.44-.56-1.46-1.38-2.27-3.49-3.13-3.76-3.23.07-.27.12-.8.13-1.05,0-.04,0-.07,0-.11h-.07.07c-.02-.06.13-.32.17-.59v-.07c0-.4-.45-1.16-.67-1.67-.27-.54-.95-.63-1.15-.64-.61-.57-1.49-.64-1.93-.64-.17,0-.27,0-.28.02-.04.02-1.14.26-1.41.45-.12.1-.42.39-.69.68-.33-.19-.67-.26-.99-.26-.77,0-1.35.4-1.42.45,0-.02-.59.06-.93.1-.42.05-.76.24-1.62,1.26-.42.5-.54.98-.54,1.36s.11.64.16.74c-.37.12-.69.37-.88.53-.31.31-.32,1.01-.33,1.26-.04,0-.09,0-.13,0-.67.06-1.3.43-1.31.44,0,.05-.48.08-.6.47,0,.04,0,.07.03.1.07.15.31.43.77.43h.02c.36.02.52-.09.57-.17,0,0,.02-.02.02-.02.16.19,1.11,1.07,1.11,1.08.03.02.39.26.86.26.22,0,.47-.05.71-.21.38-.29.87-.21,1.06-.64.17-.03.57-.12.82-.25.11-.05.23-.14.33-.26,0,0,0,0,.02-.02,0,0,.47-.51.56-.47v.02c.35.86.46,1.6.46,2.2,0,1.21-.45,1.84-.44,1.85-.06.09-.33.71-.51,1.12-.11-.21-.26-.31-.35-.37-.06-.2-.19-.33-.28-.4v-.02c-.02-.58-.64-.63-.53-.65-.13-.37-.62-.54-.63-.57-.21-.36-.81-.4-.82-.42h-.07c-.28,0-.84.23-1.01.29-.05,0-.12-.02-.22-.02-.13,0-.31.02-.5.09-.04,0-.11-.02-.18-.02-.3,0-.87.12-1.18.76-.02,0-.42.26-.62.66,0,.02-.64,1.87-.73,2.54-.1.71-.04.52-.11.69-.03.16-.95.97-.97,1.65,0,.11.03.22.1.32-.56.4-2.23,1.86-2.23,4.94,0,.31.02.63.05.97-.72-.28-1.45-.49-1.65-.54-.12-.16-.3-.21-.39-.26-.13-.05-.71-.31-.78-.41-.22-.23-.61-.33-.86-.35-.17-.15-.61-1.02-.83-1.73-.25-.79-.43-1.77-.43-2.78v-.13c0-1.14-.75-2.55-.96-3.06-.02-.03-.02-.07-.04-.09l1.03-.52c-.02.1-.02.21-.02.32,0,.16.02.35.12.51-.02-.02.53,1.52,2.24,1.65.16.02,1.6.07,1.61.07h.06c.34.19.76.42,1.26.43.27,0,.56-.07.83-.26,0,0,.44-.23.44-.85,0-.07,0-.14-.02-.22.12-.09.33-.29.35-.59,0-.1-.02-.2-.09-.31l-.12-.2.57-.09s.46-.08.52-.48c0-.02,0-.06-.02-.1l-.12-.12s-.74-.14-.88-.15c-.07,0-.92-.13-.92-.13l-.34.04-.37-.1c-.14-.41-.87-.94-1.11-1.11.12-.06.21-.12.27-.25.06-.22.06-.61.06-.81v-.1s0-.04,0-.07c.3-.45.34-.96.35-1.26l.74.4s.57.32.92.33h.05c.33-.02.42-.33.41-.42,0,0,.13-.12.12-.14.15-.06.24-.17.3-.25.1,0,.28-.02.42-.1.07-.05.14-.12.2-.17.07.04.15.08.27.09.19,0,.35-.17.38-.41.1-.52.61-1.7.71-1.96.05-.14.1-.21.13-.26.13.04.25.07.37.07h.11c.55-.05.66-.45.65-.54,0-.03.11-.4.11-.78s-.12-.92-.66-1.11c-.13-.24-.57-1.01-1.4-1.02-.05,0-.11,0-.17,0-.24-.16-1.15-.74-2.17-.75-.12,0-.26,0-.38.03.05,0-.51-.1-1.12-.1-.66,0-1.5.1-1.65.76-.38.07-1.53.24-1.69.89-.07.02-.15.03-.2.06-.18.12-.52.39-.56.8-.64-.26-1.23-.31-1.53-.32h-.19s-.87-.1-1.81-.1c-.5,0-1.01.02-1.4.12-1.1.25-2.49.5-3.09.86-.59.38-1.13,1.43-1.54,1.65-.46.26-1.22.56-1.45,1.45-.02.12-.06.25-.08.39-.19.05-1.4.46-2.55,2.53.02-.02-.76.9-1.01,1.12-.17.15-.18.36-.19.57,0,.42.12.89.36,1.12.07.06.23.26.46.49-.1.13-.21.36-.21.69s.12.78.46,1.35c-.36.25-1.15,1.05-1.42,3.33,0,.02-.15,2.86-.51,3.95-.67,1.43-2.19,2.97-2.19,2.98-.02.02-.21.21-.21.54,0,.19.08.42.31.62l1.13.78s.07.03.1.03c0,.07.02.12.03.12.15.28.52.31.96.46.39.11.75.2.91.21.07.06.17.1.27.1.67.03.97,0,1.22.28.14.16.3.31.48.4.03,0,.22.06.52.08-.46.28-.93.72-1.01,1.24-.03.27-.15.78-.15,1.28,0,.7.3,1.49,1.41,1.5h.02l.1-.02s.61-.34.98-.64c.04.3.17,1.03.52,1.45.02.02.03.04.05.06-.02.09-.08.4-.08.79,0,.64.13,1.54.81,2.24-.1.11-.27.33-.3.64-.02.35-.02.97-.28,1.53-.27.59-.8,1.82-.81,2.3,0,.02,0,.05,0,.09.03.2.23.58.43.95.1.18.2.36.27.5.03.07.07.12.08.16,0,.02.02.03.02.04.09.22.2.3.36.4.09.02.31.05.45.06h.02l.02-.08v.07s.17.02.28.02c.03,0,.07,0,.09,0,.09-.05.36,0,.44-.33v-.16c.17-.13.37-.35.42-.63,0-.07-.05-.18-.15-.21-.13-.04-.37-.12-.5-.17-.19-.06-.26-.06-.26-.11-.07-.13-.09-.2-.09-.23,0-.02,0-.03,0-.05.03-.11.2-.26.32-.33.08-.07,1.47-1,1.67-1.03h.02c.28.06.77.19.92.34.26.24,2.19,1.87,2.68,2.1.42.18,2.13,1.23,3.07,1.33.84.09,2.35.41,2.98.59.34.09.86.21,1.4.21s1.07-.12,1.43-.51c.57-.67.9-.73.96-1.27.02-.23.1-.74.1-1.25,0-.4-.05-.81-.23-1.13-.37-.62-.72-1.05-.72-1.06,0-.02-.02-.02-.04-.04v-.02c.02-.14.04-.27.04-.4,0-.68-.37-1.14-.4-1.25-.03-.09-.22-.64-.42-1.3-.12-.36-.25-.78-.37-1.16.12-.11.5-.44.9-.84.24.24,2.69,2.86,3.76,3.1.02.02.06.02.09.02,0,0,1.15-.04,2.23-.39.83-.29,1.4-.79,1.98-.78.17,0,.35.03.55.15,0,.02.02.04.03.07.06.11.15.21.26.31l.12,2.11v.03c0,.09,0,.5.33.61l-.3,2.12-5.26,1.22s-.07.02-.1.04c-.03.03-.06.07-.06.12v1.34l.11.16,5.19,1.73h.1l9.49-2.77c.07-.02.13-.09.13-.16v-1.33c0-.08-.06-.15-.13-.16l-5.45-1.12-.85.19-.59-3.91s.02-.02.02-.02c.23-.31.48-.78.48-1.41,0-.17-.02-.36-.07-.55-.18-.76-.25-1.19-.24-1.47,0-.22.03-.36.09-.53.02-.15,1.8-2.29,2.99-4.44,0,.75-.02,1.96-.02,2.53v.31c0,.09.02.28.02.51,0,.4-.05.92-.2,1.11-.3.44-.62,1.11-.62,1.54v.09c0,.11.03.29.03.46,0,.21-.02.41-.03.45-.07.16-.38,1.14-.38,1.15,0,.03-.02.09-.02.19-.02.26.1.86.78.94.33.04.72.07,1.08.07.49,0,.93-.04,1.22-.18.38-.21.71-.53.72-.9,0-.06,0-.12-.03-.17-.16-.34-.47-.51-.63-.74-.16-.2-.35-.59-.34-.81v-.08s.12-.37.12-.61v-.35c0-.27.04-.64.11-.72.18-.26,1.47-2.21,1.47-2.22.02-.02.65-.97.86-3.66v-.02c.7-.06,1.21-.07,1.45-.07l-.04.16-.63,1.35s-1.06,2.05-1.26,2.55c-.12.31-.57,1.17-.57,2.41,0,.61.11,1.3.41,2.07l.35,1.28c.58,1.87.9,2.17,1.65,2.28h.04c-.07.26-.14.49-.18.58-.07.16-.22.44-.32.77-.04.14-.07.3-.07.45,0,.04,0,.09,0,.14.05.45.05.99.57,1.09.07,0,.14,0,.21,0,.29,0,.59-.06.71-.07.13.05.51.17.76.19.12,0,.26.02.4.02.15,0,.31-.02.45-.1.17-.11.52-.23.73-.38.17-.14.63-.49.68-.92v-.03c-.03-.46-.8-1.45-.8-1.48.02.02,0,0,0-.07.7.14,2.77.21,4.91.31.7.03.77.02,1.4.05h.35c1.62,0,4.6-.32,4.6-.32.08,0,.14-.07.15-.16,0-.08-.04-.16-.12-.17l-.03-.07Z"/>
      <path class="cls-1" d="m47.91,33.5l-1.39.29c-.09.02-.15.11-.13.2.02.09.11.15.19.13l.48-.1.13.15s.07.06.12.06c.04,0,.07-.02.12-.04.07-.06.07-.16,0-.24l.54-.11c.09-.02.15-.11.13-.2-.02-.09-.11-.15-.2-.13h-.02Z"/>
      <path class="cls-1" d="m36.43,25.78s.11-.02.14-.07c0,0,.15-.18.31-.33,0,0,0,.02,0,.02l.06.1c.05.07.16.1.23.05.07-.05.1-.16.04-.23l-.07-.1s-.02-.02-.02-.03c.02,0,.03,0,.05,0h.02c.07.06.17.05.24-.02.06-.07.04-.17-.02-.23-.07-.06-.16-.08-.23-.08-.48.04-.86.67-.89.67-.06.07-.04.18.04.23.03.02.06.03.09.03h0Z"/>
      <path class="cls-1" d="m43.91,18.26c0,.09.05.17.14.19h.02c.08,0,.16-.06.17-.14v-.07c.14.03.27.05.42.05.09,0,.17-.07.17-.16s-.07-.16-.17-.17c-.46,0-.93-.29-.93-.28-.08-.05-.18-.02-.23.06-.05.07-.02.18.06.22,0,0,.15.09.37.17l-.02.13h0Z"/>
      <path class="cls-1" d="m32.04,19.47c-.05.07-.03.18.05.23l.27.18-.08.12c-.05.07-.03.18.04.23.08.05.18.03.23-.04l.08-.12.3.2s.06.02.09.02c.05,0,.11-.02.14-.07.05-.07.03-.18-.04-.23l-.85-.56c-.07-.05-.17-.03-.23.04Z"/>
      <path class="cls-1" d="m44.59,19.97c-.25,0-.43-.17-.43-.17-.07-.06-.17-.05-.23.02-.06.07-.05.17.02.24,0,0,.26.21.62.24h.02c.09,0,.16-.07.17-.16,0-.09-.07-.17-.16-.17Z"/>
      <path class="cls-1" d="m37.14,39.28c.09.02.18-.03.21-.12.03-.09-.02-.18-.12-.21,0,0-.57-.18-.61-.31-.05-.08-.15-.11-.22-.06-.08.05-.11.15-.06.23.06.09.15.17.23.22l-.02.02c-.07.06-.07.16-.02.23.03.04.08.06.13.06.04,0,.07,0,.11-.04l.14-.12c.13.05.24.07.24.08h-.02Z"/>
      <path class="cls-1" d="m44.72,19.43c-.09,0-.15-.02-.18-.02,0-.02-.02-.02-.03-.03-.07-.07-.17-.07-.23,0,0,0-.05.07-.05.12.02.18.17.26.47.27h0c.08,0,.16-.07.17-.16,0-.09-.06-.17-.16-.18h0Z"/>
      <path class="cls-1" d="m59.1,27.75s.09-.02.12-.05l1.35-1.33c.07-.07.07-.17,0-.24-.07-.07-.17-.07-.23,0l-1.35,1.34c-.07.07-.07.17,0,.23.03.03.08.05.12.05Z"/>
      <rect class="cls-1" x="37.22" y="71.29" width="1.69" height="4.33"/>
      <polygon class="cls-1" points="32.94 75.28 31.27 75.02 31.95 70.74 33.62 71 32.94 75.28"/>
      <polygon class="cls-1" points="27.1 74.04 25.49 73.52 26.84 69.4 28.45 69.91 27.1 74.04"/>
      <polygon class="cls-1" points="21.53 71.89 20.03 71.13 22.01 67.27 23.51 68.03 21.53 71.89"/>
      <polygon class="cls-1" points="16.37 68.9 15.01 67.91 17.57 64.41 18.94 65.39 16.37 68.9"/>
      <polygon class="cls-1" points="11.75 65.15 10.56 63.96 13.64 60.9 14.83 62.08 11.75 65.15"/>
      <polygon class="cls-1" points="7.77 60.72 6.78 59.37 10.31 56.82 11.3 58.17 7.77 60.72"/>
      <polygon class="cls-1" points="4.53 55.73 3.77 54.23 7.65 52.27 8.42 53.76 4.53 55.73"/>
      <polygon class="cls-1" points="2.13 50.3 1.61 48.71 5.76 47.37 6.28 48.96 2.13 50.3"/>
      <polygon class="cls-1" points=".6 44.55 .33 42.9 4.64 42.22 4.91 43.88 .6 44.55"/>
      <rect class="cls-1" y="36.97" width="4.36" height="1.68"/>
      <polygon class="cls-1" points=".34 32.73 .6 31.08 4.91 31.75 4.65 33.41 .34 32.73"/>
      <polygon class="cls-1" points="1.6 26.92 2.12 25.33 6.27 26.67 5.75 28.26 1.6 26.92"/>
      <polygon class="cls-1" points="3.76 21.4 4.53 19.91 8.41 21.87 7.65 23.37 3.76 21.4"/>
      <polygon class="cls-1" points="6.77 16.27 7.76 14.91 11.29 17.46 10.3 18.82 6.77 16.27"/>
      <polygon class="cls-1" points="10.55 11.67 11.74 10.49 14.82 13.55 13.63 14.74 10.55 11.67"/>
      <polygon class="cls-1" points="15.01 7.72 16.38 6.73 18.94 10.24 17.57 11.22 15.01 7.72"/>
      <polygon class="cls-1" points="20.03 4.51 21.53 3.74 23.51 7.61 22.01 8.37 20.03 4.51"/>
      <polygon class="cls-1" points="25.49 2.11 27.1 1.59 28.44 5.71 26.84 6.23 25.49 2.11"/>
      <polygon class="cls-1" points="31.28 .6 32.94 .34 33.62 4.62 31.96 4.88 31.28 .6"/>
      <rect class="cls-1" x="37.21" width="1.69" height="4.34"/>
      <polygon class="cls-1" points="43.18 .34 44.85 .6 44.17 4.88 42.5 4.62 43.18 .34"/>
      <polygon class="cls-1" points="49.02 1.59 50.62 2.11 49.27 6.23 47.67 5.72 49.02 1.59"/>
      <polygon class="cls-1" points="54.59 3.74 56.09 4.51 54.11 8.37 52.61 7.61 54.59 3.74"/>
      <polygon class="cls-1" points="59.74 6.73 61.11 7.72 58.54 11.22 57.18 10.24 59.74 6.73"/>
      <polygon class="cls-1" points="64.38 10.48 65.57 11.66 62.48 14.73 61.29 13.54 64.38 10.48"/>
      <polygon class="cls-1" points="68.35 14.91 69.35 16.27 65.82 18.81 64.82 17.46 68.35 14.91"/>
      <polygon class="cls-1" points="71.59 19.9 72.35 21.39 68.47 23.36 67.7 21.86 71.59 19.9"/>
      <polygon class="cls-1" points="74 25.33 74.52 26.92 70.37 28.26 69.85 26.67 74 25.33"/>
      <polygon class="cls-1" points="75.53 31.07 75.79 32.72 71.48 33.4 71.22 31.75 75.53 31.07"/>
      <rect class="cls-1" x="71.76" y="36.98" width="4.36" height="1.68"/>
      <polygon class="cls-1" points="75.79 42.9 75.52 44.56 71.21 43.88 71.48 42.22 75.79 42.9"/>
      <polygon class="cls-1" points="74.52 48.7 74 50.29 69.85 48.95 70.37 47.36 74.52 48.7"/>
      <polygon class="cls-1" points="72.35 54.23 71.59 55.72 67.7 53.75 68.47 52.26 72.35 54.23"/>
      <polygon class="cls-1" points="69.35 59.36 68.36 60.71 64.83 58.16 65.82 56.81 69.35 59.36"/>
      <polygon class="cls-1" points="65.58 63.96 64.39 65.14 61.3 62.08 62.5 60.89 65.58 63.96"/>
      <polygon class="cls-1" points="61.12 67.91 59.75 68.89 57.19 65.39 58.55 64.4 61.12 67.91"/>
      <polygon class="cls-1" points="56.1 71.12 54.59 71.88 52.61 68.02 54.12 67.26 56.1 71.12"/>
      <polygon class="cls-1" points="50.63 73.51 49.02 74.03 47.68 69.91 49.28 69.39 50.63 73.51"/>
      <polygon class="cls-1" points="44.84 75.03 43.18 75.29 42.49 71.01 44.16 70.75 44.84 75.03"/>
    </g>
  </g>
</svg>