<?xml version="1.0" encoding="UTF-8"?>
<svg id="Layer_2" data-name="Layer 2" xmlns="http://www.w3.org/2000/svg" viewBox="0 0 73.72 75.82">
  <defs>
    <style>
      .cls-1 {
        fill: #fff;
        stroke-width: 0px;
      }
    </style>
  </defs>
  <g id="Livello_2" data-name="Livello 2">
    <g id="Livello_1-2" data-name="Livello 1-2">
      <g>
        <polygon class="cls-1" points="22.3 29.91 27.7 29.91 27.7 31.34 22.3 31.34 22.3 36.75 20.87 36.75 20.87 31.34 15.46 31.34 15.46 29.91 20.87 29.91 20.87 24.28 22.3 24.28 22.3 29.91"/>
        <path class="cls-1" d="m17.78,33.77c-.44-.22-.77-.33-.88-.44-.11.33-.22,1.65,0,1.88.22.11.55.22.88.22h0l.11.66c.44-.11,1.43-.55,1.1-1.1-.11-.55-.66-.88-1.21-1.21"/>
        <path class="cls-1" d="m18.11,33.33c-.44-.33-.88-.44-.88-.44v-.11c.11-.22.33-.33.44-.33.33-.11.77-.11,1.43.22.55.33.66.77.66,1.21s-.22.77-.22.77h-.11c-.33-.55-.88-.99-1.32-1.32"/>
        <path class="cls-1" d="m24.73,33.77c-.44-.22-.77-.33-.88-.44,0,.33-.22,1.65,0,1.88.22.11.55.22.88.22h0l.11.66c.44-.11,1.43-.55,1.1-1.1-.22-.55-.77-.88-1.21-1.21"/>
        <path class="cls-1" d="m24.17,32.78c.77.33,1.76.99,2.21,1.76.11-.33.44-1.32-.44-1.76-.55-.33-1.32-.55-1.76,0"/>
        <path class="cls-1" d="m17.78,26.6c-.44-.22-.77-.33-.88-.44-.11.33-.22,1.65,0,1.88.22.11.55.22.88.22h0l.11.66c.44-.11,1.43-.55,1.1-1.1-.11-.55-.66-.99-1.21-1.21"/>
        <path class="cls-1" d="m17.23,25.5c.77.33,1.76.99,2.21,1.76.11-.33.44-1.32-.44-1.76-.44-.33-1.21-.55-1.76,0"/>
        <path class="cls-1" d="m24.73,26.6c-.44-.22-.77-.33-.88-.44,0,.33-.22,1.65,0,1.88.22.11.55.22.88.22h0l.11.66c.44-.11,1.43-.55,1.1-1.1-.22-.55-.77-.99-1.21-1.21"/>
        <path class="cls-1" d="m24.17,25.5c.77.33,1.76.99,2.21,1.76.11-.33.44-1.32-.44-1.76-.55-.33-1.32-.55-1.76,0"/>
        <polygon class="cls-1" points="12.26 30.68 12.26 30.68 11.16 31.89 11.05 31.89 9.84 30.68 9.84 30.68 11.05 29.47 11.16 29.47 12.26 30.68"/>
        <polygon class="cls-1" points="33.33 30.68 33.33 30.68 32.23 31.89 32.12 31.89 31.01 30.68 31.01 30.68 32.12 29.47 32.23 29.47 33.33 30.68"/>
        <polygon class="cls-1" points="22.74 41.49 22.74 41.6 21.64 42.7 21.53 42.7 20.42 41.6 20.42 41.49 21.53 40.28 21.64 40.28 22.74 41.49"/>
        <polygon class="cls-1" points="30.13 37.63 30.24 37.74 30.24 39.39 30.13 39.39 28.59 39.39 28.48 39.39 28.48 37.74 28.59 37.63 30.13 37.63"/>
        <polygon class="cls-1" points="14.69 37.63 14.8 37.74 14.8 39.39 14.69 39.39 13.15 39.39 13.03 39.39 13.03 37.74 13.15 37.63 14.69 37.63"/>
        <path class="cls-1" d="m20.31,37.85c.11-.33.55-.44.88-.22.33.11.44.55.22.88s-.55.44-.88.22c-.22-.22-.33-.66-.22-.88"/>
        <path class="cls-1" d="m21.2,38.95c.11,0,.22,0,.22.11-.55,1.1-1.43,1.99-2.98,1.99-1.76,0-2.32-.88-2.98-1.99,0-.11.11-.22.11-.22.66.77,1.76.99,2.76.99,1.1.11,2.21-.11,2.87-.88"/>
        <path class="cls-1" d="m21.97,37.85c.11-.33.55-.44.88-.22.33.11.44.55.22.88s-.55.44-.88.22c-.33-.22-.44-.66-.22-.88"/>
        <path class="cls-1" d="m27.59,38.95c.11,0,.22,0,.22.11-.55,1.1-1.43,1.99-2.98,1.99-1.65,0-2.32-.88-2.98-1.99,0-.11.11-.22.11-.22.66.77,1.76.99,2.76.99s2.21-.11,2.87-.88"/>
        <path class="cls-1" d="m14.58,29.25c.33.11.44.55.22.88s-.55.44-.88.22c-.33-.11-.44-.55-.22-.88s.55-.33.88-.22"/>
        <path class="cls-1" d="m14.58,24.39c.33.11.44.55.22.88s-.55.44-.88.22c-.33-.11-.44-.55-.22-.88s.55-.33.88-.22"/>
        <path class="cls-1" d="m13.48,30.13c0,.11,0,.22-.11.22-1.1-.55-1.88-1.54-1.88-2.98,0-1.76.88-2.43,1.88-2.98.11,0,.22.11.22.22-.77.66-.99,1.88-.99,2.87s.22,1.99.88,2.65"/>
        <path class="cls-1" d="m14.58,35.87c.33.11.44.55.22.88s-.55.44-.88.22c-.33-.11-.44-.55-.22-.88s.55-.33.88-.22"/>
        <path class="cls-1" d="m14.58,31.01c.33.11.44.55.22.88s-.55.44-.88.22c-.33-.11-.44-.55-.22-.88s.55-.44.88-.22"/>
        <path class="cls-1" d="m13.48,36.75c0,.11,0,.22-.11.22-1.1-.55-1.88-1.54-1.88-2.98,0-1.76.88-2.43,1.88-2.98.11,0,.22.11.22.22-.77.66-.99,1.88-.99,2.87s.22,1.99.88,2.65"/>
        <path class="cls-1" d="m28.59,29.25c.33-.11.66,0,.88.22s0,.66-.22.88c-.33.11-.66,0-.88-.22s-.11-.66.22-.88"/>
        <path class="cls-1" d="m28.59,24.39c.33-.11.66,0,.88.22s0,.66-.22.88c-.33.11-.66,0-.88-.22s-.11-.66.22-.88"/>
        <path class="cls-1" d="m29.69,30.13c.66-.66.99-1.76.99-2.76s-.22-2.21-.99-2.76c0-.11,0-.22.11-.22,1.1.55,1.88,1.21,1.88,2.98,0,1.54-.88,2.43-1.88,2.98-.11,0-.11-.11-.11-.22h0Z"/>
        <path class="cls-1" d="m28.59,35.87c.33-.11.66,0,.88.22s0,.66-.22.88c-.33.11-.66,0-.88-.22s-.11-.77.22-.88"/>
        <path class="cls-1" d="m28.59,31.01c.33-.11.66,0,.88.22s0,.66-.22.88c-.33.11-.66,0-.88-.22s-.11-.77.22-.88"/>
        <path class="cls-1" d="m29.69,36.75c.66-.66.99-1.76.99-2.76s-.22-2.21-.99-2.76c0-.11,0-.22.11-.22,1.1.55,1.88,1.21,1.88,2.98,0,1.54-.88,2.43-1.88,2.98-.11,0-.11-.11-.11-.22h0Z"/>
        <path class="cls-1" d="m27.37,20.53c.22.11.33.44.22.66-.11.22-.44.33-.66.22s-.33-.44-.22-.66c.11-.33.44-.44.66-.22"/>
        <path class="cls-1" d="m28.48,21.09c.22.11.33.44.22.66-.11.22-.44.33-.66.22s-.33-.44-.22-.66c.11-.22.44-.33.66-.22"/>
        <path class="cls-1" d="m28.48,19.87c.22.11.33.44.22.66-.11.22-.44.33-.66.22s-.33-.44-.22-.66c0-.22.33-.33.66-.22"/>
        <path class="cls-1" d="m24.06,19.65c.22,0,.44.33.44.55,0,.33-.33.44-.55.44s-.44-.33-.44-.55c0-.33.22-.55.55-.44"/>
        <path class="cls-1" d="m25.28,19.87c.22,0,.44.33.44.55,0,.33-.33.44-.55.44s-.44-.33-.44-.55c0-.33.33-.55.55-.44"/>
        <path class="cls-1" d="m24.84,18.77c.22,0,.44.33.44.55,0,.33-.33.44-.55.44s-.44-.33-.44-.55c0-.33.33-.44.55-.44"/>
        <path class="cls-1" d="m21.09,19.43c.33,0,.55.22.55.55s-.22.55-.55.55-.55-.22-.55-.55.22-.55.55-.55"/>
        <path class="cls-1" d="m22.3,19.43c.33,0,.55.22.55.55s-.22.55-.55.55-.55-.22-.55-.55.33-.55.55-.55"/>
        <path class="cls-1" d="m21.75,18.44c.33,0,.55.22.55.55s-.22.55-.55.55-.55-.22-.55-.55.22-.55.55-.55"/>
        <path class="cls-1" d="m15.9,20.53c.22-.11.55,0,.66.22s0,.55-.22.66-.55,0-.66-.22c-.11-.22,0-.55.22-.66"/>
        <path class="cls-1" d="m14.8,21.09c.22-.11.55,0,.66.22s0,.55-.22.66-.55,0-.66-.22c-.22-.22-.11-.55.22-.66"/>
        <path class="cls-1" d="m14.8,19.87c.22-.11.55,0,.66.22s0,.55-.22.66-.55,0-.66-.22c-.11-.11,0-.44.22-.66"/>
        <path class="cls-1" d="m19.32,19.65c.22,0,.55.11.55.44s-.11.55-.44.55c-.22,0-.55-.11-.55-.44,0-.22.22-.55.44-.55"/>
        <path class="cls-1" d="m18.11,19.87c.22,0,.55.11.55.44s-.11.55-.44.55c-.22,0-.55-.11-.55-.44,0-.22.11-.55.44-.55"/>
        <path class="cls-1" d="m18.55,18.77c.22,0,.55.11.55.44s-.11.55-.44.55c-.22,0-.55-.11-.55-.44-.11-.22.11-.55.44-.55"/>
        <path class="cls-1" d="m22.96,21.53c.77.11,1.54-.77,1.54-.77h.11s.44.99,1.21,1.21,1.65-.33,1.65-.33l.11.11-1.1,1.43h0s-.44-.22-1.21-.44c-.77-.22-1.99-.55-3.53-.55s-2.76.22-3.53.55c-.77.22-1.21.55-1.21.55h-.11l-.99-1.43.11-.11s.88.55,1.65.33c.77-.22,1.21-1.21,1.21-1.21h.11s.66.88,1.54.77c.55-.11.99-.44,1.21-.99h.11c-.11,0,.33.77,1.1.88"/>
        <path class="cls-1" d="m58.81,20.98c.22-.11.55,0,.66.22s0,.55-.22.66-.55,0-.66-.22,0-.55.22-.66"/>
        <path class="cls-1" d="m54.62,24.5h0l.88.77v2.32l1.1-1.1h.11l4.08,4.19c-.22.22-1.54.99-2.32.88-.11,0-.55-.11-.77-.11v-2.32h-.55v.55h-.55v-.55h-.66v1.76c-.11-.11-.66-.22-1.21-.22s-1.43.44-1.65.44l.66.77s.33-.33,1.43-.33c.44,0,.99.33,1.43.44.99.33,1.54.44,2.54.11.33-.11.44-.22.44-.22v.11l-2.98,2.98h-.11l-1.1-1.1v2.43l-.88.88h-.11v-4.19l-.33-.77-.11-.11v5.74l-.88.88h-.11v-7.61l-.44-.44v-.11l.44-.44v-7.5h.11l.88.88v5.74l.77-.77-.11-3.97h0Z"/>
        <path class="cls-1" d="m51.31,37.96v-5.96l-.77.77v4.3h-.11l-.77-.77v-2.65l-1.21,1.21h-.11l-2.87-2.87c-.11-.11.44-.44,1.43-.44.44,0,.99.33,1.43.44.99.33,1.54.44,2.54.11.33-.11.44-.22.44-.22l.88-.88h.11v7.72h-.11c-.11.11-.88-.77-.88-.77Z"/>
        <path class="cls-1" d="m33.99,46.01c-.22-1.65-.44-1.65.55-.88h0l-.55.88c.33-.11.88-.22,1.43-.33l-.55-.55v-.11l.66-.66h.11l.66.66v.11l-.55.55c.55-.11.99-.11,1.43-.11l-.66-.66v-.11l.66-.66h.11l.66.66v.11l-.66.66c.44,0,.88,0,1.32.11l-.44-.44v-.11l.66-.66h.11c-.33-1.54-.77-2.65-.77-2.76-.33-.11-.55-.22-.88-.11-.44,0-1.1.22-1.54.33v-.11c.88-1.88,1.65-3.09,1.65-3.09h.11s.44.77,1.1,1.99c.55,1.21,1.32,2.76,1.99,4.41l.44-.33h.11l-.22,1.21c.33,1.21.66,2.43.66,3.53l.44-.22h.11l-.44,1.76c0,1.32-.11,2.54-.22,3.64l.33-.11h.11l-.55,1.54c-.22,1.32-.33,2.1-.33,2.1,0,0-.55.22-1.1.33-.66.11-1.43.22-2.1.22s-1.43-.11-2.1-.22c-.66-.11-1.1-.22-1.1-.22,0,0-.11-.44,0-.55,0,0,1.88-.33,3.2-.33h1.21c0-.11.11-.44.22-.77-.44,0-.99-.11-1.43-.11-1.32,0-3.31.44-3.31.44l-.33-.99s.55-.22,1.21-.33l.33-.11-.77-.77v-.11l.77-.77h.11l.77.77v.11l-.66.77c.55-.11,1.1-.22,1.54-.22l-.77-.77v-.11l.77-.77h.11l.77.77v.11l-.77.77h.11c.33,0,.88,0,1.32.11l-.66-.66v-.11l.77-.77h.11l.55.55c.22-.77.33-1.65.44-2.65-.77-.11-1.65-.22-2.43-.22-1.54,0-3.86.44-3.86.44l-.11-1.1-.44-1.76h.11l1.43.77v.11l-.77.88c.33-.11.88-.22,1.65-.22l-1.65-.88v-.11l.88-.88h.11l.88.88v.11l-.77.88c.66-.11,1.32-.11,1.88-.11l-.88-.99v-.11l.88-.99h.11l.88.99v.11l-.88.88c.55,0,1.21,0,1.76.11l-.77-.77v-.11l.88-.88h.11l.44.44c0-.88-.11-1.88-.33-2.76-.66-.11-1.54-.22-2.21-.22-1.32,0-3.42.44-3.42.44-.11.11,0-.11.22-.77h0Z"/>
        <polygon class="cls-1" points="33.77 56.05 33.66 56.05 33.11 54.51 33.22 54.51 34.54 55.17 34.54 55.28 33.77 56.05"/>
        <path class="cls-1" d="m11.27,44.03c-.11-.11.55-.77.55-.77h.11l.77.66.55.44.11.11,1.21-1.21c.11-.22.66.55.77.55v.11l-1.1,1.32,1.21,1.1,1.99-2.1c.11-.22.66.55.77.55v.11l-1.99,2.1,5.07,4.85c.11.44.11.88.22,1.1v.33l-.11.11-5.85-5.63-2.32,2.54c-.11.22-.77-.55-.77-.55v-.11l2.1-2.32-1.21-1.1-1.32,1.43c-.11.22-.66-.55-.77-.55v-.11l1.32-1.43-1.32-1.54h0Z"/>
        <path class="cls-1" d="m36.2,66.53v.11h-.33c-.22,0-.66-.11-1.1-.11l-7.06-6.84v-.11h.22c.22,0,.55,0,.99-.11l7.28,7.06Z"/>
        <path class="cls-1" d="m29.91,57.37c.44,0,.66.11.66.11.11,0-.11.22-.11.22-.66.55-1.43.88-2.21.99-1.21.11-2.21.11-2.76.11-.55-.11-.77-.22-.77-.22v-.11s.33-.22.88-.44c1.32-.44,2.98-.66,4.3-.66"/>
        <path class="cls-1" d="m45.79,59.58h.22v.11l-7.06,6.73c-.44,0-.88.11-1.1.11h-.33v-.11l7.28-6.95h.11c.33.11.66.11.88.11"/>
        <path class="cls-1" d="m52.74,53.07l.11-1.54,2.65-2.76c.11-.22.11-.77.11-.99-.33-5.96,6.4-5.51,6.4-1.54,0,3.75-4.96,3.42-4.08.22.22-.77,1.21-.88,1.54-.44.44.77-.11,1.32-.66,1.32,0,.11.33.44.77.44.55.11,1.32-.44,1.43-1.21.22-1.99-2.21-2.54-3.31-1.54-.77.77-.99,1.43-.77,2.65.11.77.55,1.43,1.1,1.88.11.11.22.11.22.11v.11s-.88-.22-1.54-.55l-3.97,3.86h0Z"/>
        <path class="cls-1" d="m44.36,57.37h1.65c2.43.33,3.64,1.1,3.64,1.1v.11s-.99.44-3.53.11c-1.54-.22-2.43-1.1-2.43-1.1v-.11s.22,0,.66-.11"/>
        <path class="cls-1" d="m48.33,26.49l1.21,1.21v-2.54l.88-.88h.11v4.41l.77.66v-5.96l.88-.88h.11v7.72c.22.22.33.33.22.33,0,0-.33.22-.88.44-.44.22-1.1.44-1.54.33-.11,0-.66-.11-.77-.11v-2.32h-.66v.55h-.55v-.55h-.66v1.99c-.22,0-.66-.22-1.21-.22-.77,0-1.65.44-1.65.44l-.44-.44v-.11l4.19-4.08s.11,0,0,0Z"/>
        <polygon class="cls-1" points="43.92 29.8 43.92 29.91 42.7 31.12 42.7 31.12 41.49 29.91 41.49 29.8 42.7 28.7 42.7 28.7 43.92 29.8"/>
        <polygon class="cls-1" points="63.33 29.8 63.33 29.8 62.12 31.01 62.12 31.01 60.9 29.8 60.9 29.8 62.12 28.59 62.12 28.59 63.33 29.8"/>
        <polygon class="cls-1" points="53.73 41.82 53.73 41.82 52.63 43.03 52.52 43.03 51.42 41.82 51.42 41.82 52.52 40.61 52.63 40.61 53.73 41.82"/>
        <polygon class="cls-1" points="60.24 37.08 60.24 37.08 60.24 38.73 60.24 38.84 58.59 38.84 58.48 38.73 58.48 37.08 58.59 37.08 60.24 37.08"/>
        <polygon class="cls-1" points="46.45 37.08 46.45 37.08 46.45 38.73 46.45 38.84 44.8 38.84 44.69 38.73 44.69 37.08 44.8 37.08 46.45 37.08"/>
        <path class="cls-1" d="m45.02,28.48c.11.33-.11.66-.44.77-.33.11-.66-.11-.77-.44-.11-.33.11-.66.44-.77s.77.11.77.44"/>
        <path class="cls-1" d="m48.44,25.06c.11.33-.11.66-.44.77-.33.11-.66-.11-.77-.44-.11-.33.11-.66.44-.77.33-.11.66.11.77.44"/>
        <path class="cls-1" d="m43.59,28.37h-.22c-.33-1.21-.33-2.43.77-3.53,1.21-1.21,2.21-1.1,3.42-.77.11.11,0,.22,0,.22-1.76,0-3.97,2.21-3.97,4.08"/>
        <path class="cls-1" d="m59.91,28.59c.11-.33.44-.55.77-.44s.55.44.44.77c-.11.33-.44.55-.77.44-.44-.11-.55-.44-.44-.77"/>
        <path class="cls-1" d="m56.49,25.06c.11-.33.44-.55.77-.44s.55.44.44.77c-.11.33-.44.55-.77.44-.33-.11-.55-.44-.44-.77"/>
        <path class="cls-1" d="m61.34,28.48c.11-1.76-2.1-4.08-3.86-3.97v-.22c1.21-.33,2.21-.55,3.42.77,1.1,1.1,1.1,2.32.77,3.53l-.33-.11h0Z"/>
        <path class="cls-1" d="m48.77,36.64c-.11.33-.44.55-.77.44s-.55-.44-.44-.77.44-.55.77-.44c.44,0,.55.44.44.77"/>
        <path class="cls-1" d="m52.19,40.06c-.11.33-.44.55-.77.44s-.55-.44-.44-.77.44-.55.77-.44c.33.11.55.44.44.77"/>
        <path class="cls-1" d="m47.45,36.64c-.11,1.76,2.1,4.08,3.86,3.97v.22c-1.21.33-2.21.55-3.42-.77-.99-1.1-1.1-2.32-.77-3.53l.33.11h0Z"/>
        <path class="cls-1" d="m44.25,32c-.11.33-.44.55-.77.44s-.55-.44-.44-.77c.11-.33.44-.55.77-.44.44.11.55.44.44.77"/>
        <path class="cls-1" d="m47.67,35.42c-.11.33-.44.55-.77.44s-.55-.44-.44-.77.44-.55.77-.44.55.44.44.77"/>
        <path class="cls-1" d="m43.03,32c-.11,1.76,2.1,4.08,3.86,3.97v.22c-1.21.33-2.21.55-3.42-.77-.99-1.1-1.1-2.32-.77-3.53l.33.11h0Z"/>
        <path class="cls-1" d="m56.27,36.64c-.11-.33.11-.66.44-.77.33-.11.66.11.77.44.11.33-.11.66-.44.77-.33,0-.77-.11-.77-.44"/>
        <path class="cls-1" d="m52.85,40.06c-.11-.33.11-.66.44-.77.33-.11.66.11.77.44.11.33-.11.66-.44.77-.33.11-.66-.11-.77-.44"/>
        <path class="cls-1" d="m57.48,36.64h.22c.33,1.21.33,2.43-.77,3.53-1.21,1.21-2.21,1.1-3.42.77-.11-.11,0-.22,0-.22,1.88,0,4.08-2.21,3.97-4.08"/>
        <path class="cls-1" d="m60.68,32c-.11-.33.11-.66.44-.77.33-.11.66.11.77.44.11.33-.11.66-.44.77-.22,0-.66-.11-.77-.44"/>
        <path class="cls-1" d="m57.37,35.42c-.11-.33.11-.66.44-.77.33-.11.66.11.77.44.11.33-.11.66-.44.77-.33.11-.66-.11-.77-.44"/>
        <path class="cls-1" d="m62.01,32h.22c.33,1.21.33,2.43-.77,3.53-1.21,1.21-2.21,1.1-3.42.77-.11-.11,0-.22,0-.22,1.88,0,4.08-2.32,3.97-4.08"/>
        <path class="cls-1" d="m58.15,20.31c.22.11.33.44.22.66s-.44.33-.66.22-.33-.44-.22-.66.44-.33.66-.22"/>
        <path class="cls-1" d="m59.25,19.76c.22.11.33.44.22.66s-.44.33-.66.22-.33-.44-.22-.66.33-.33.66-.22"/>
        <path class="cls-1" d="m46.78,20.31c.22-.11.55,0,.66.22s0,.55-.22.66-.55,0-.66-.22c-.11-.11,0-.44.22-.66"/>
        <path class="cls-1" d="m45.57,20.98c.22-.11.55,0,.66.22s0,.55-.22.66-.55,0-.66-.22,0-.55.22-.66"/>
        <path class="cls-1" d="m45.68,19.76c.22-.11.55,0,.66.22s0,.55-.22.66-.55,0-.66-.22c-.11-.22,0-.55.22-.66"/>
        <path class="cls-1" d="m49.32,19.1c.22,0,.55.11.55.44s-.11.55-.44.55-.55-.11-.55-.44c0-.22.22-.44.44-.55"/>
        <path class="cls-1" d="m55.39,19.1c.22,0,.44.33.44.55,0,.33-.33.44-.55.44s-.44-.33-.44-.55c.11-.22.33-.44.55-.44"/>
        <path class="cls-1" d="m51.86,19.21c.33,0,.55.22.55.55s-.22.55-.55.55-.55-.22-.55-.55.22-.55.55-.55"/>
        <path class="cls-1" d="m53.07,19.21c.33,0,.55.22.55.55s-.22.55-.55.55-.55-.22-.55-.55.22-.55.55-.55"/>
        <path class="cls-1" d="m52.52,18.22c.33,0,.55.22.55.55s-.22.55-.55.55-.55-.22-.55-.55.22-.55.55-.55"/>
        <path class="cls-1" d="m53.73,21.42c.77.11,1.54-.77,1.54-.77h.11s.44.99,1.32,1.21c.77.22,1.65-.33,1.65-.33v.11l-.99,1.32h0s-.44-.22-1.21-.44c-.99-.22-2.21-.44-3.75-.44s-2.76.22-3.53.55c-.77.22-1.21.55-1.21.55h0l-.99-1.43.11-.11s.88.55,1.65.33,1.32-1.21,1.32-1.21h-.11s.66.88,1.54.77,1.21-.99,1.21-.99h.11c0-.11.44.77,1.21.88"/>
        <path class="cls-1" d="m36.86,35.98l3.97-.99h0s-.22,2.21-3.53,2.65c-1.76.22-2.87-1.1-3.31-2.65-.11-.33-.11-.55-.11-.55h.11l2.87,1.54h0Z"/>
        <path class="cls-1" d="m40.06,13.03c.22,0,.44.22.44.44s-.22.44-.44.44-.44-.22-.44-.44.22-.44.44-.44"/>
        <path class="cls-1" d="m40.61,11.49c.22,0,.44.22.44.44s-.22.44-.44.44-.44-.22-.44-.44.22-.44.44-.44"/>
        <path class="cls-1" d="m40.06,10.06c.22,0,.44.22.44.44s-.22.44-.44.44-.44-.22-.44-.44.22-.44.44-.44"/>
        <path class="cls-1" d="m38.4,9.28c.22,0,.44.22.44.44s-.22.44-.44.44-.44-.22-.44-.44.22-.44.44-.44"/>
        <path class="cls-1" d="m36.86,9.17c.22,0,.44.22.44.44s-.22.44-.44.44-.44-.22-.44-.44.22-.44.44-.44"/>
        <path class="cls-1" d="m35.09,9.73c.22,0,.44.22.44.44s-.22.44-.44.44-.44-.22-.44-.44.22-.44.44-.44"/>
        <path class="cls-1" d="m33.99,10.83c.22,0,.44.22.44.44s-.22.44-.44.44-.44-.22-.44-.44.11-.44.44-.44"/>
        <path class="cls-1" d="m33.66,12.15c.22,0,.44.22.44.44s-.22.44-.44.44-.44-.22-.44-.44.22-.44.44-.44"/>
        <path class="cls-1" d="m34.21,13.7c.22,0,.44.22.44.44s-.22.44-.44.44-.44-.22-.44-.44.22-.44.44-.44"/>
        <path class="cls-1" d="m36.97,12.15c.44,0,.88,0,1.21.33l1.1-1.32-.88-.11-.11.55h-.77c-.11,0,.11-.44.11-.66l-.55-.44-.44.55c.33.77.44.55-.33.66h0l-.44-.66-.77.44,1.1.88c.11-.11.44-.22.77-.22"/>
        <path class="cls-1" d="m15.57,37.85c.11-.33.55-.44.88-.22.33.11.44.55.22.88s-.55.44-.88.22c-.22-.22-.33-.66-.22-.88"/>
        <path class="cls-1" d="m26.71,37.85c.11-.33.55-.44.88-.22.33.11.44.55.22.88s-.55.44-.88.22c-.33-.22-.44-.66-.22-.88"/>
        <path class="cls-1" d="m38.18.02C17.78-.64.79,15.68.02,36.64c-.66,20.96,15.22,38.49,35.51,39.15,20.4.77,37.39-15.66,38.16-36.51C74.47,18.33,58.48.79,38.18.02m1.88,74.78c.22-.33.99-1.21.99-3.09-.11-1.88-.77-2.76-.99-2.98,1.32-.22,2.43-.33,3.75-.77-.22.33-.77,1.32-.33,3.2.44,1.76,1.65,2.54,1.99,2.76-1.76.44-3.53.66-5.4.88m23.71-54.49h0c-.22.11-.33.11-.44.22-.44.22-.77.77-.77,1.32h-.11l-.44-1.1v-.22c0-.11,0-.33.11-.55.22-.44.55-1.1,1.21-1.65l.11.11c-.33.55-.22,1.43.33,1.88m.99,1.1c.22.33.11.77-.22.99-.33.22-.77.11-.99-.22s-.11-.77.22-.99.77-.11.99.22m-.33-2.87c.33-.22.77-.11.99.22s.11.77-.22.99-.77.11-.99-.22-.11-.77.22-.99m.99,1.88c.22-.11.33-.22.44-.33h.11c0,.33.22.66.44.88v.11c-.33,0-.66.22-.88.44h-.11c-.11-.33-.22-.66-.44-.88v-.11c.22,0,.33,0,.44-.11m1.88,1.76c.22.33.11.77-.22.99-.33.22-.77.11-.99-.22s-.11-.77.22-.99.77-.11.99.22m-.55,1.99c-.77.33-1.76.44-2.54.11-.11,0-.22-.11-.22-.11l-.66-.99v-.11c.44.22.99.22,1.43,0,.11-.11.22-.11.33-.22h.11c0,.11.11.33.22.44.22.55.77.77,1.32.88h0m-.44,14.78c-.55,16.65-14.23,29.78-30.44,29.23-16.21-.55-29.01-14.67-28.35-31.32.55-16.65,14.12-29.78,30.44-29.12,16.21.55,28.9,14.56,28.35,31.21M10.28,18.22h0c.77.44,1.32,1.32,1.43,2.21v.22l-.44,1.1h-.11c0-.55-.22-.99-.77-1.21-.11-.11-.22-.11-.44-.22v-.11c.11-.11.22-.22.33-.33.33-.55.22-1.1,0-1.65m-3.53,4.96c-.33-.22-.44-.66-.22-.99.22-.33.66-.44.99-.22.33.11.44.55.22.88-.22.33-.66.44-.99.33m.33.77c.77,0,1.32-.55,1.54-1.21h.11c.11.11.22.22.33.33.44.22.99.22,1.43,0l.11.11-.66.88s-.11,0-.22.11c-.11,0-.33.11-.55.11-.66.11-1.32.11-2.1-.33h0m.22-2.98c.33-.22.44-.55.55-.88h.11c.22.22.55.44.88.55v.11c-.22.22-.44.55-.44.88h-.11c-.11-.11-.22-.22-.33-.33-.22-.22-.44-.22-.66-.33h0m1.1-2.21c.22-.33.66-.44.99-.22s.44.66.22.99-.66.44-.99.22-.33-.66-.22-.99m1.65,2.32c.33.22.44.66.22.99s-.66.44-.99.22-.44-.66-.22-.99.66-.44.99-.22m27.9,53.93c.22-.22.33-.66.33-.99,0-.22,0-.33-.11-.55v-.11c.11.11.33.11.55.11.55,0,.99-.33,1.32-.77h.11c-.11.88-.55,1.65-1.21,2.1-.11.22-.22.22-.22.22h-.77m.88-2.21c-.44,0-.77-.33-.77-.77s.33-.77.77-.77.77.33.77.77-.44.77-.77.77m-1.21-3.97h0l1.1.11s.11,0,.22.11l.44.44c.33.33.66.99.77,1.88h-.11c-.22-.44-.77-.77-1.32-.77-.22,0-.33,0-.44.11h0c0-.11.11-.33.11-.44-.11-.66-.33-1.21-.77-1.43m-1.43,5.18c0-.44.33-.77.77-.77s.77.33.77.77-.33.77-.77.77-.77-.33-.77-.77m1.1-1.99c0,.22,0,.33.11.55v.11c-.22-.11-.33-.11-.55-.11s-.33,0-.55.11v-.11c.11-.22.11-.33.11-.55s0-.33-.11-.44v-.11c.11.11.33.11.44.11s.33,0,.44-.11v.11c.22.11.11.33.11.44m-1.1-1.88c0-.44.33-.77.77-.77s.77.33.77.77-.33.77-.77.77-.77-.44-.77-.77m-.77,0v.44h-.44c-.55,0-1.1.33-1.32.88h-.11c.11-.88.55-1.76,1.21-2.32.11-.11.22-.11.22-.11l1.1-.11v.11c-.33.11-.66.55-.66,1.1m-.44,1.21c.44,0,.77.33.77.77s-.33.66-.77.66-.66-.33-.66-.77.22-.66.66-.66m-1.32,1.43h0c.33.44.77.77,1.32.77.22,0,.33,0,.55-.11l.11.11c-.11.22-.11.33-.11.55,0,.33.11.77.33.99v.11l-.77-.22s-.11,0-.22-.11c-.66-.44-1.1-1.32-1.21-2.1m-5.29,1.1c.99-.55,1.76-1.65,1.99-2.76.44-1.76-.11-2.76-.33-3.09,1.32.44,2.32.55,3.75.77l-.11.11c-.66.77-.88,1.88-.88,2.87s.22,2.21.88,2.98l.11.11c-1.88-.33-3.64-.55-5.4-.99M2.12,28.59c.88-.55,2.1-.66,3.09-.33,1.88.55,2.32,1.76,2.43,1.99-.55,2.21-.88,4.41-.99,6.73-.44,14.67,9.04,27.35,22.28,31.1.11.11.77,1.1.33,2.98-.33,1.1-.77,1.76-1.21,2.21-.22.22-.55.44-.77.55C11.49,69.17.24,54.06.79,36.64c.11-2.76.44-5.4,1.1-7.94,0,0,.11,0,.22-.11m2.1-6.4c.11.44.55,1.54,2.1,2.43,1.65.88,2.65.66,2.98.55-.55,1.32-.88,2.32-1.21,3.64-.22-.33-.77-1.21-2.54-1.76-1.76-.44-2.98.22-3.31.44.55-1.88,1.21-3.53,1.99-5.29m1.43-1.1c.22.11.33.11.55.22v.11c-.55.44-.66,1.32-.33,1.99h-.11c-.66-.55-1.1-1.32-1.21-2.21v-.22h0l.22-.66h.11c.22.33.44.55.77.77m1.1-1.99c.33.22.44.66.22.99-.22.33-.66.44-.99.22-.33-.22-.44-.66-.22-.99.22-.22.66-.33.99-.22m-.11-1.54c.77-.33,1.65-.33,2.43-.11v.11c-.55,0-.99.22-1.32.77-.11.11-.11.33-.22.44h-.11c-.11-.11-.22-.22-.44-.33-.33-.22-.66-.22-.99-.22v-.11l.55-.44s0-.11.11-.11m4.19-5.29c0,1.1.55,2.21,1.32,2.98,1.21,1.21,2.43,1.32,2.76,1.32-.99.99-1.65,1.88-2.43,2.98v-.11c-.33-.99-1.21-1.76-1.99-2.21-.88-.55-1.99-.88-2.98-.66h-.11c1.1-1.54,2.21-2.98,3.53-4.3h-.11m51.4-.55c-.11.99-.66,1.99-1.32,2.65-1.43,1.43-2.65,1.32-2.87,1.21-11.69-11.69-30.55-11.8-42.24,0-.22,0-1.43.22-2.87-1.21-.77-.77-1.1-1.54-1.21-2.1-.11-.33-.11-.66-.11-.99,14.12-14.12,36.62-14.01,50.63.22v.22m4.3,4.74c-.33-.11-1.54-.22-3.09.66-1.54.99-1.88,1.99-1.99,2.32-.88-1.1-1.54-1.99-2.54-2.87.44,0,1.54,0,2.76-1.32,1.32-1.32,1.32-2.76,1.32-3.2,1.32,1.43,2.43,2.98,3.53,4.41m1.1,1.88c-.33-.11-.66,0-.99.22-.22.11-.22.22-.44.33h-.11c-.11-.77-.77-1.21-1.43-1.21v-.11c.77-.33,1.65-.33,2.43,0,.11,0,.22.11.22.11h0l.33.66h0m.11,2.1c-.33.22-.77.11-.99-.22s-.11-.77.22-.99.77-.11.99.22.11.77-.22.99m1.32.66c-.11.88-.55,1.65-1.1,2.21h-.11c.22-.44.33-.99,0-1.54-.11-.11-.22-.33-.33-.44v-.11c.22,0,.33-.11.55-.22.33-.22.55-.44.66-.77h.11l.22.66c.11,0,.11.11,0,.22m2.54,6.4l-.11-.11c-.99-.55-2.1-.66-3.2-.33-1.65.55-2.32,1.54-2.54,1.88-.33-1.32-.66-2.43-1.21-3.64h.11c.88.22,2.1-.22,2.87-.55.88-.55,1.76-1.32,2.1-2.32v-.11c.77,1.54,1.43,3.31,1.99,5.18m-24.93,45.99s-.11,0-.22-.11c-.88-.55-1.54-1.43-1.88-2.54-.44-1.99.22-2.98.33-3.09,12.46-3.53,21.73-14.89,22.17-28.79.11-3.09-.22-6.07-.88-8.82.11-.22.55-1.32,2.43-1.88.99-.22,1.88-.11,2.43.11.22.11.66.22.88.44,4.63,18.97-6.07,39.15-25.26,44.67m23.38-47.98l-.33-.77h0l-3.86,1.43h0l.33.77h0l3.86-1.43h0m-5.63-10.26h0l-.44-.77h-.11l-3.2,2.87v.11l.44.66h.11l3.2-2.87h0Zm-51.29,1.99l-3.09-2.76h-.11l-.44.66v.11l3.2,2.76h.11l.33-.77h0m-5.07,8.93l-3.86-1.43h0l-.33.77h0l3.86,1.43h.11l.22-.77h0m23.38,43.13l-.66,4.19.77.11h0l.66-4.19-.77-.11h0Zm10.81,0l-.77.22.77,4.19.88-.22s-.88-4.19-.88-4.19Z"/>
        <path class="cls-1" d="m26.05,59.8c-.44.55-1.1.55-1.76.33-.44-.11-1.32-.99-1.76-1.32l.33,1.99c-.11.33-1.32.44-1.43.44-1.32.11-1.65-.33-1.65-.55v-.33c-.11-.88-.22-1.99.11-2.76.55-1.1,1.43-.88,2.1-.55.55.33,1.21.88,1.76,1.65.44.44,1.43.77,1.99.99l.33.11c.11,0,0,0,0,0m-4.3-1.43c0-.11-.33-.77-.77-.55-.44.22-.33,1.99-.22,2.43,0,.22.99.22,1.21.22l-.22-2.1h0Z"/>
        <path class="cls-1" d="m30.79,50.98c-.11-1.32-1.21-3.31-2.32-4.85-1.1-1.65-2.1-2.98-2.1-2.98h-.11l-.44,1.99-1.43-1.99h-.11c-2.43,5.07-2.32,9.26-2.21,10.48.11.66.55,1.65.99,2.54s.88,1.65.99,1.65c0,0,.66-.22,1.54-.55.77-.22,1.65-.55,2.1-.55.77-.11,2.76-.11,2.76-.11.22,0,.66-3.09.33-5.63m-5.18-4.52l-.66,2.98s-.77,2.76-1.32,2.54c-1.1-.33.11-3.86.11-3.97l.88-2.98.99,1.43h0Zm1.21.44l1.32,8.82h0l-.88.11-.77.11h-.22c-.55.22-1.21.33-1.76.55h0c-.66-.99-.99-1.99-1.1-3.2h0c.11,0,.55,0,1.1-.33s1.1-1.88,1.32-2.54l.99-3.53h0m3.31,8.82h-.77c-.55-6.62-1.1-8.38-1.21-8.82h.11c.11.11.11.22.22.33.22.33.44.77.66,1.21.44.99.99,1.99,1.1,2.54.11.77-.11,4.3-.11,4.74"/>
        <path class="cls-1" d="m48.22,59.8h0l.22-.11c.55-.22,1.65-.55,1.99-.99.55-.66,1.1-1.32,1.76-1.65s1.43-.55,2.1.55c.44.77.33,1.99.11,2.76v.33c0,.77-3.09.55-3.09.11l.33-1.99c-.33.33-1.32,1.21-1.76,1.32-.55.22-1.21.22-1.65-.33h0Zm4.41-1.43l-.22,2.1c.22,0,1.21,0,1.21-.22.11-.44.22-2.1-.22-2.43-.44-.11-.66.33-.77.55"/>
        <path class="cls-1" d="m35.65,14.14c.22-.55.44-.99.44-.99,0-.44.77-.55.99-.55.55,0,.88.22,1.1.66v.11s.11.44.22.88c0,.11.22.66.33.88v.11l.11.22c.11.44.55,1.54.88,1.76,1.88,1.43,2.1,5.4,2.1,5.63s-.66,6.18-1.21,8.49c-.11.55-.33,1.99.22,2.43l.11.11v.11l-1.65.22v-.11s.11-.33.22-.77c.11-.44.22-1.1.33-1.65,0-.77.33-2.1.44-3.53.11-1.43,0-2.98-.55-4.3.33-.88.44-1.43.44-1.54-.11,0-.66-.22-1.21-.44-.66-.22-1.32-.44-1.54-.55-.33-.11-1.32,1.1-1.65,1.43-.22.22-.33.33-.44.44-.22.11,0,.55,0,.66.11.22.22.66,0,.88-.55.55-.44,1.21-.22,1.88.11.22.22.55.33.88.44,1.32.88,3.2.44,5.96.11.11,1.54.33,1.65.11.55-1.99.55-3.09.66-3.86s.11-1.1.88-1.32h0c0,.11,0,.66-.11,1.54s-.22,2.21-.33,3.86c.55.22.44.44.11.66-.33.22-.99.44-1.32.77h-.11c-.11-.22-.55-.44-1.1-.66s-1.1-.33-1.54-.55-.77-1.32-.44-2.65c.22-.88-.44-5.63-.66-6.84,0-.44-.11-.66-.22-.88s-.22-.33-.22-.55c-.11-.33-.22-.88-.11-2.21s.66-2.32,1.1-3.2c.22-.44.44-.77.66-1.1s.33-.55.33-.88c0-.22.22-.99.55-1.54m.66-.11c0,.11,0,.33-.11.55,0,.11.33,0,.55.11.11.11,0,.66,0,.77s.22.11.22.11v.88c.22.11.77-.22.88-.55.33-.66,0-1.65-.11-1.99-.11-.22-.99-.11-1.32-.11h-.22l.11.22h0Zm3.75,5.85h-.33c-.55,0-1.88-.11-2.21-.33l-.11-.22c0-.55-.22-1.1-.66-1.76h-.11c-.33.22-.44.88-.33,1.21.22.66,0,1.1-.55,1.21h-.22l-1.1.44c0,.22.11,1.65.33,1.76.11,0,2.32-1.65,2.32-1.76h.11c.11,0,.33.11.44.11.66.22,1.32.44,1.99.66.11,0,.33.11.44.11.33-.22.22-.88.11-1.21l-.11-.22h0m-2.87-5.29c.44-.11.44.11.55.11.11.11-.11.11-.22.22h-.33v-.33"/>
        <path class="cls-1" d="m49.98,43.14h0l-1.43,1.99-.44-1.99h-.11s-.99,1.32-2.1,2.98-2.21,3.64-2.32,4.85-.11,2.76,0,3.86.22,1.88.22,1.88c0,0,1.99,0,2.76.11.33,0,1.32.33,2.1.55s1.54.55,1.54.55c.55-.99,1.76-3.09,1.99-4.19.11-1.32.22-5.51-2.21-10.59m-3.64,3.64c-.22.44-.66,2.21-1.21,8.82l-.77.11h0c0-.22-.11-1.1-.11-2.1,0-1.1,0-2.32.11-2.87.11-.44.66-1.54,1.1-2.54.22-.44.44-.88.66-1.21l.22-.22h0m2.32,3.64c.22.66.77,2.21,1.32,2.54.33.22.77.33,1.1.33h0c-.11,1.21-.55,2.21-1.1,3.2h0c-.55-.22-1.21-.33-1.76-.55h-.22l-.55-.11-1.1-.11h0l1.32-8.82h.11l.88,3.53h0Zm2.1,1.54c-.22.11-.55-.55-.88-1.21-.22-.66-.44-1.32-.44-1.32l-.66-2.98.99-1.43.88,2.98c.22.77,1.1,3.64.11,3.97"/>
        <path class="cls-1" d="m25.5,67.85l-.88-.44-2.87,3.31.77.33,2.21-2.65h0l-.33,3.42.77.33.33-4.3h0Zm-3.42-1.65l-.66-.44-1.65,2.65h0l.33-3.53-.88-.55-2.21,3.53.66.55,1.65-2.65h0l-.33,3.53.88.55,2.21-3.64h0Zm-4.3-2.87l-.66-.55-2.65,3.2.66.55,2.65-3.2Zm-2.76-2.54l-.66-.66-3.86,1.88.55.55,3.09-1.54h0l-1.54,3.09.66.66,1.76-3.97h0Zm-2.54-2.87l-1.43-2.1-.55.44.99,1.32-.99.66-.88-1.21-.55.33.88,1.32-.88.55-.88-1.32-.44.44,1.43,1.99,3.31-2.43h0Zm-5.85-2.65l-.11-.22c-.22-.33-.33-.77.11-1.1.44-.22.77.11.88.55l.11.22-.99.55h0Zm3.42-.88l-.33-.77-1.54.77-.11-.22c-.11-.33-.11-.44.11-.77l.88-1.1-.44-.88-1.1,1.32c-.11.22-.22.33-.22.55h0c-.33-.44-.77-.55-1.21-.33-.99.55-.44,1.43-.11,2.32l.44.77,3.64-1.65h0Zm-6.62-5.07c0,.33.11.66.22.99.22.66.77,1.32,1.65.99,1.32-.44.33-2.1,1.1-2.32.33-.11.66.22.77.55s.11.66.11.99l.77-.22c0-.44-.11-.66-.22-1.1-.22-.77-.88-1.32-1.65-1.1-1.32.44-.44,2.1-1.1,2.32-.44.11-.66-.11-.77-.44-.11-.22-.11-.55-.11-.88l-.77.22h0Zm3.31-3.09l-.22-.77-3.97.88.22.77,3.97-.88Zm-.66-3.42l-.11-.88-3.42.44-.11-1.21-.66.11.44,3.2.66-.11-.11-1.21,3.31-.33h0Zm-1.99-5.29v1.21l-1.65-.66h0l1.65-.55h0Zm1.54,2.76v-.88l-.88-.33v-1.65l.99-.33v-.88l-4.08,1.65v.99l3.97,1.43h0Zm-3.42-8.71c-.11.33-.22.66-.33.99-.11.77.11,1.54.99,1.65,1.32.22,1.32-1.65,2.1-1.54.33,0,.44.55.44.77,0,.33-.22.66-.33.88l.77.22c.11-.44.22-.55.33-1.1.11-.88-.11-1.65-.99-1.76-1.32-.22-1.32,1.65-1.99,1.54-.44-.11-.55-.44-.44-.77s.11-.55.33-.77l-.88-.11h0Z"/>
        <path class="cls-1" d="m68.73,35.53c-.11-.22-.22-.55-.22-.88-.11-.88.44-1.54,1.32-1.54s1.54.33,1.65,1.21c0,.33,0,.55-.11.88h.66c.11-.33.11-.66.11-.99-.11-1.43-.99-2.21-2.43-2.1-1.32.11-1.99,1.21-1.76,2.54,0,.33.11.66.22.88h.55Zm.88,4.08v-1.21l1.65.66h0l-1.65.55h0Zm-1.43-2.76v.88l.88.44-.11,1.65-.99.33v.88l4.19-1.43v-.99l-3.97-1.76h0Zm2.87,7.17l-.11.22c-.11.44-.22.88-.66.77-.55-.11-.44-.55-.33-.99v-.22s1.1.22,1.1.22Zm-3.2-1.54l-.22.88,1.65.33v.22c-.11.33-.22.44-.55.44l-1.32.22-.22.88,1.65-.33c.22,0,.44-.11.55-.33h0c0,.55.33.99.77,1.1,1.1.22,1.32-.88,1.43-1.65l.22-.88-3.97-.88h0Zm-.33,7.39l.44-1.1,1.32,1.21h0l-1.76-.11h0Zm-.55-3.09l-.33.77.77.66-.55,1.65h-.99l-.33.88,4.41-.11.33-.88-3.31-2.98h0Zm-2.1,5.29l-1.21,2.21.55.33.77-1.43,2.98,1.65.44-.77-3.53-1.99h0Zm-1.88,3.31l-.44.66,3.31,2.43.44-.66c.11,0-3.31-2.43-3.31-2.43Zm-1.99,2.87l-.55.66,2.65,2.32-.77.88.55.44,2.1-2.43-.55-.55-.77.88-2.65-2.21h0Zm-2.54,4.96l.88-.77.66,1.65h0l-1.54-.88h0Zm.88-2.98l-.66.55.33.99-1.21,1.1-.88-.44-.66.66,3.97,2.1.66-.66-1.54-4.3h0Zm-4.19,3.75l-.66.44,1.65,2.65h0l-2.98-1.88-.88.55,2.21,3.53.66-.44-1.65-2.65h0l2.98,1.88.88-.55-2.21-3.53h0Zm-5.96,5.07l1.1-.44.11,1.88h0l-1.21-1.43Zm1.88-2.54l-.77.33v.99l-1.54.66-.66-.77-.88.33,3.09,3.2.88-.33c0,.11-.11-4.41-.11-4.41Z"/>
        <path class="cls-1" d="m17.56,7.63c-.33.11-.66.22-.99.44-.55.44-.99,1.1-.44,1.88.77,1.1,2.1-.11,2.54.44.22.33,0,.66-.33.88-.22.22-.55.33-.88.33l.33.66c.44-.11.55-.22.99-.44.66-.44,1.1-1.21.55-1.99-.77-1.21-2.1.11-2.54-.44-.22-.33,0-.66.22-.88.22-.22.55-.22.77-.33l-.22-.55h0Zm4.52,1.99l.77-.44-1.54-3.2,1.1-.55-.33-.55-2.87,1.43.33.55,1.1-.55c-.11.22,1.43,3.31,1.43,3.31Zm4.08-1.88l.99-.33V3l-.77.22v3.42h0l-1.99-2.76-.88.33,2.65,3.53Zm3.64-1.21l1.1-.22c1.21-.22,2.32-.77,1.99-2.43-.22-1.65-1.32-1.88-2.65-1.65l-1.1.22.66,4.08h0Zm.33-3.64l.44-.11c.66-.11,1.43.33,1.54,1.21.11.88-.44,1.54-1.1,1.65l-.44.11s-.44-2.76-.44-2.87Zm4.74,2.98h.77l-.22-4.19h-.77l.22,4.19Zm2.65-2.21c-.11,1.32.44,2.21,1.76,2.43,1.32.11,2.1-.77,2.21-1.99s-.55-2.21-1.76-2.32c-1.32-.22-2.1.55-2.21,1.88m.88,0c.11-.77.44-1.43,1.32-1.32.77.11,1.1.88.99,1.65-.11.77-.44,1.54-1.32,1.43s-1.1-.99-.99-1.76m6.18-.55l.22.11c.44.11.77.22.66.77-.11.44-.55.44-.88.33l-.22-.11c-.11,0,.22-1.1.22-1.1Zm-1.65,3.31l.77.22.44-1.76.22.11c.33.11.44.22.44.55l.22,1.43.88.22-.22-1.76c0-.22-.11-.44-.33-.55h0c.55,0,.88-.22,1.1-.77.22-1.1-.77-1.32-1.65-1.54l-.88-.22-.99,4.08h0Zm5.18,1.54l.88.44,2.87-3.31-.77-.33-2.21,2.65h0l.22-3.53-.77-.33-.22,4.41Zm3.64,1.65l.66.44,1.76-2.98h0l-.88,3.53.66.44,2.76-2.32h0l-1.76,2.98.66.44,2.21-3.53-1.1-.77-2.43,2.21h0l.88-3.2-1.1-.77-2.32,3.53h0Z"/>
        <polygon class="cls-1" points="15.68 55.5 18.11 55.5 18.11 54.84 16.45 54.84 16.45 51.31 15.68 51.31 15.68 55.5"/>
        <polygon class="cls-1" points="56.82 55.5 59.25 55.5 59.25 54.84 57.7 54.84 57.7 53.73 59.14 53.73 59.14 52.96 57.7 52.96 57.7 51.97 59.25 51.97 59.25 51.31 56.82 51.31 56.82 55.5"/>
        <polygon class="cls-1" points="34.98 64.43 35.87 64.43 35.87 62.56 37.41 62.56 37.41 64.43 38.29 64.43 38.29 60.24 37.41 60.24 37.41 61.89 35.87 61.89 35.87 60.24 34.98 60.24 34.98 64.43"/>
      </g>
    </g>
  </g>
</svg>